<svg width="90" height="165" viewBox="0 0 90 165" fill="none" xmlns="http://www.w3.org/2000/svg">
<g clip-path="url(#clip0_2005_653)">
<path d="M46.8961 58.4638L61.4188 93.2509C61.5994 93.6848 61.9175 94.0405 62.3303 94.2661L88.9339 108.948C90.3612 109.738 90.3612 111.803 88.9339 112.592L62.3303 127.274C61.9175 127.5 61.5994 127.856 61.4188 128.29L46.8961 163.077C46.191 164.769 43.8092 164.769 43.0955 163.077L28.5728 128.29C28.3922 127.856 28.074 127.5 27.6613 127.274L1.0749 112.592C-0.352441 111.803 -0.352441 109.738 1.0749 108.948L27.6785 94.2661C28.0912 94.0405 28.4094 93.6848 28.5899 93.2509L43.1127 58.4638C43.8178 56.7717 46.1996 56.7717 46.9132 58.4638H46.8961Z" fill="#FCAE12"/>
<path d="M12.8032 39.3912L16.1738 47.4611C16.2512 47.6433 16.3802 47.7908 16.5521 47.8862L22.7258 51.2964C23.3191 51.6261 23.3191 52.4852 22.7258 52.8149L16.5521 56.2251C16.3802 56.3205 16.2512 56.468 16.1738 56.6503L12.8032 64.7201C12.5109 65.423 11.5134 65.423 11.2211 64.7201L7.85051 56.6503C7.77312 56.468 7.64414 56.3205 7.47217 56.2251L1.29849 52.8149C0.705192 52.4852 0.705192 51.6261 1.29849 51.2964L7.47217 47.8862C7.64414 47.7908 7.77312 47.6433 7.85051 47.4611L11.2211 39.3912C11.5134 38.6884 12.5109 38.6884 12.8032 39.3912Z" fill="#E04A26"/>
<path d="M32.0206 0.924993L37.4376 13.8975C37.515 14.0884 37.6612 14.2532 37.8504 14.3574L47.773 19.8327C48.4179 20.1885 48.4179 21.117 47.773 21.4727L37.8504 26.9481C37.6698 27.0522 37.5236 27.2084 37.4376 27.408L32.0206 40.3804C31.7025 41.144 30.6277 41.144 30.3095 40.3804L24.8925 27.408C24.8151 27.2171 24.6689 27.0522 24.4798 26.9481L14.5571 21.4727C13.9123 21.117 13.9123 20.1885 14.5571 19.8327L24.4798 14.3574C24.6603 14.2532 24.8065 14.0971 24.8925 13.8975L30.3095 0.924993C30.6277 0.161395 31.7025 0.161395 32.0206 0.924993Z" fill="#00669B"/>
</g>
<defs>
<clipPath id="clip0_2005_653">
<rect width="90" height="164" fill="white" transform="translate(0 0.352295)"/>
</clipPath>
</defs>
</svg>
