<svg width="57" height="40" viewBox="0 0 57 40" fill="none" xmlns="http://www.w3.org/2000/svg">
<g opacity="0.5">
<path fill-rule="evenodd" clip-rule="evenodd" d="M8.49367 6.50251C13.5753 3.05244 20.5839 0.925293 28.3151 0.925293C36.0463 0.925293 43.0549 3.05244 48.1365 6.50251C53.217 9.95183 56.3892 14.7386 56.3892 20.0524C56.3892 25.3661 53.217 30.1529 48.1365 33.6022C43.0549 37.0523 36.0463 39.1794 28.3151 39.1794C20.5839 39.1794 13.5753 37.0523 8.49367 33.6022C3.41318 30.1529 0.240967 25.3661 0.240967 20.0524C0.240967 14.7386 3.41318 9.95183 8.49367 6.50251ZM8.72427 6.84217C3.71814 10.241 0.651507 14.9151 0.651507 20.0524C0.651507 25.1896 3.71814 29.8637 8.72427 33.2625C13.7293 36.6606 20.6551 38.7689 28.3151 38.7689C35.975 38.7689 42.9008 36.6606 47.9059 33.2625C52.912 29.8637 55.9786 25.1896 55.9786 20.0524C55.9786 14.9151 52.912 10.241 47.9059 6.84217C42.9008 3.44409 35.975 1.33583 28.3151 1.33583C20.6551 1.33583 13.7293 3.44409 8.72427 6.84217Z" fill="white"/>
<path fill-rule="evenodd" clip-rule="evenodd" d="M9.5481 7.36131C14.366 4.14706 21.016 2.16235 28.3561 2.16235C35.6963 2.16235 42.3462 4.14672 47.1642 7.36062C51.9814 10.5741 54.9769 15.0248 54.9769 19.9552C54.9769 24.8855 51.9814 29.3366 47.1642 32.5504C42.3462 35.7646 35.6963 37.7493 28.3561 37.7493V37.7507C21.016 37.7507 14.366 35.766 9.5481 32.5518C4.73087 29.338 1.73535 24.8869 1.73535 19.9565C1.73535 15.0261 4.73087 10.5751 9.5481 7.36131ZM9.66202 7.53207C4.88151 10.7213 1.94062 15.1161 1.94062 19.9565C1.94062 24.797 4.88151 29.1917 9.66202 32.381C14.4418 35.5698 21.0509 37.5454 28.3561 37.5454V37.5441C35.6614 37.5441 42.2705 35.5684 47.0503 32.3796C51.8308 29.1903 54.7717 24.7956 54.7717 19.9552C54.7717 15.1147 51.8308 10.7203 47.0503 7.53139C42.2705 4.34292 35.6614 2.36762 28.3561 2.36762C21.0509 2.36762 14.4418 4.34326 9.66202 7.53207Z" fill="white"/>
<path d="M46.7964 28.2468L47.1823 28.8612L47.7023 28.5355L47.3164 27.9211L46.7964 28.2468ZM45.0899 28.6286C44.8395 28.1825 44.6848 27.8472 44.9613 27.6926C45.1884 27.5653 45.3869 27.7473 45.6907 28.2919C45.9944 28.8366 46.0465 29.1007 45.8193 29.228C45.5429 29.3826 45.339 29.0747 45.0899 28.6286ZM44.5288 28.942C44.953 29.7015 45.365 29.9984 46.0328 29.6098C46.6746 29.2512 46.6691 28.7258 46.2504 27.9786C45.8261 27.2191 45.4142 26.9221 44.7464 27.3108C44.1046 27.6693 44.1101 28.1948 44.5288 28.942ZM43.9116 28.2016C43.7009 27.7665 43.3328 27.1643 42.4693 27.5817C41.5647 28.0196 41.7632 28.7189 42.2038 29.6276C42.6431 30.5362 43.0687 31.126 43.9732 30.6895C44.7642 30.3063 44.6547 29.6727 44.3427 29.0282L43.7392 29.3197C44.0512 29.9642 43.9472 30.1544 43.7296 30.2598C43.4696 30.3857 43.2657 30.2831 42.8278 29.3785C42.4186 28.5328 42.342 28.192 42.6472 28.0443C42.9195 27.9129 43.0988 28.0579 43.3095 28.4945L43.913 28.203L43.9116 28.2016ZM40.9298 31.9416L41.5278 31.709L40.3222 28.6135L39.7241 28.8462L40.9298 31.9416ZM38.8976 31.0453L38.8661 30.9536C38.7908 30.7333 38.7744 30.4582 39.0166 30.3748C39.2671 30.2885 39.3806 30.476 39.5189 30.8318L38.8989 31.0453H38.8976ZM40.2236 30.9919L40.1771 30.8551C39.9267 30.1298 39.6051 29.7083 38.8962 29.9533C38.0779 30.2352 38.1586 30.8674 38.3762 31.501C38.5801 32.0908 38.8483 32.7559 39.7282 32.4521C40.3003 32.255 40.4576 31.8554 40.2907 31.2985L39.7447 31.486C39.809 31.7884 39.7789 31.9718 39.5763 32.0415C39.3519 32.1196 39.1836 31.8719 39.0878 31.5954L39.0221 31.4066L40.2223 30.9933L40.2236 30.9919ZM36.8982 32.0361C36.7162 31.3861 36.7053 31.1534 36.9776 31.0768C37.2239 31.0084 37.3622 31.2068 37.5264 31.7939C37.64 32.2017 37.6427 32.5055 37.3827 32.578C37.1227 32.6505 36.9913 32.3686 36.8982 32.0374M37.1856 30.5746L37.2609 30.8428L37.2513 30.8455C37.0652 30.6266 36.8312 30.6047 36.6615 30.6526C35.9896 30.84 36.0895 31.527 36.2469 32.0922C36.4932 32.9748 36.8339 33.2417 37.3266 33.1048C37.5236 33.0501 37.6838 32.879 37.759 32.6656L37.7686 32.6628L37.8575 32.9803C37.926 33.2266 37.889 33.4401 37.6386 33.5099C37.562 33.5304 37.4826 33.5236 37.4142 33.5003C37.3444 33.4757 37.291 33.4237 37.2691 33.343L36.6779 33.5085C36.7929 33.9205 37.1542 34.071 37.6783 33.9246C38.3995 33.7234 38.5951 33.3347 38.4172 32.6984L37.7768 30.409L37.1856 30.5746ZM35.4436 32.8312C35.5024 33.0994 35.3067 33.2554 35.1384 33.2923C34.9701 33.3293 34.8688 33.1883 34.8278 33.0022C34.7799 32.7833 34.8538 32.6396 35.0973 32.5301C35.1712 32.4959 35.267 32.4316 35.3396 32.3495L35.4436 32.8312ZM34.6553 32.0019L34.6403 31.9334C34.5992 31.7419 34.6718 31.5941 34.862 31.5516C35.0713 31.5065 35.1781 31.6023 35.2178 31.7884C35.2534 31.9526 35.2055 32.0388 35.0289 32.1291L34.695 32.3016C34.2886 32.5137 34.1422 32.7395 34.2421 33.1993C34.3132 33.5263 34.5486 33.8657 34.9851 33.7713C35.2848 33.707 35.449 33.6043 35.5394 33.3183H35.5489C35.5845 33.395 35.6242 33.4853 35.6817 33.5551L36.2824 33.4251C36.188 33.2978 36.1524 33.1965 36.1032 32.9694L35.8254 31.683C35.7296 31.2424 35.5216 30.9632 34.7758 31.1247C34.3023 31.2273 33.9574 31.501 34.0792 32.0662L34.0915 32.125L34.6553 32.0032V32.0019ZM32.3618 32.6546L32.6464 32.6108C32.9365 32.5657 33.1692 32.6437 33.228 33.0241C33.2869 33.4045 33.0884 33.5537 32.771 33.603L32.5137 33.6427L32.3604 32.6533L32.3618 32.6546ZM32.1579 31.3354L32.3974 31.2985C32.7244 31.2478 32.8927 31.3395 32.942 31.6515C32.9899 31.9594 32.8435 32.11 32.4795 32.1661L32.2906 32.1948L32.1579 31.3354ZM31.928 34.2325L33.046 34.06C33.8178 33.941 34.0026 33.4552 33.9232 32.9406C33.8561 32.5041 33.5783 32.2646 33.2075 32.2701V32.2605C33.5181 32.1182 33.6468 31.8212 33.592 31.4668C33.4949 30.8373 33.072 30.695 32.5301 30.7785L31.4216 30.9495L31.9293 34.2325H31.928ZM29.2376 32.6793C29.6166 32.3891 29.7918 32.125 29.7781 31.7952C29.7617 31.4093 29.488 31.1137 28.9215 31.1384C28.4247 31.1589 28.0867 31.4394 28.1045 31.8719C28.1127 32.0621 28.1551 32.1962 28.3535 32.4617L28.4767 32.6286C28.0744 32.9023 27.8322 33.2294 27.8472 33.6153C27.8623 33.9875 28.0648 34.565 28.9064 34.5294C29.2321 34.5157 29.5332 34.3816 29.6919 34.175L29.889 34.4227L30.6006 34.3926L30.138 33.7973C30.3255 33.5058 30.4514 33.1596 30.4363 32.8024L29.8602 32.827C29.8657 32.9625 29.8287 33.187 29.7658 33.3334L29.2403 32.6806L29.2376 32.6793ZM29.3949 33.7768C29.2896 33.9205 29.1527 33.9971 28.9707 34.0039C28.6683 34.0162 28.4959 33.7959 28.4876 33.5865C28.4794 33.3826 28.5602 33.2157 28.8038 33.0104L29.3949 33.7768ZM28.6519 31.8294C28.645 31.657 28.7654 31.5544 28.9242 31.5475C29.0966 31.5407 29.2211 31.6324 29.2294 31.8144C29.2348 31.9307 29.1787 32.0593 29.035 32.1852L28.9187 32.2933L28.8352 32.1852C28.7176 32.0415 28.656 31.9184 28.6519 31.8294ZM25.3279 33.161C25.3593 32.6505 25.4086 32.2851 25.7247 32.3043C25.9847 32.3193 26.0531 32.5807 26.0148 33.2034C25.9765 33.826 25.878 34.0765 25.618 34.06C25.3019 34.0409 25.2964 33.6728 25.3279 33.161ZM24.6874 33.1226C24.634 33.9916 24.8202 34.4637 25.592 34.4966C26.3255 34.5417 26.6046 34.097 26.6566 33.2417C26.71 32.3727 26.5239 31.9006 25.7521 31.8678C25.0186 31.8226 24.7394 32.2673 24.6874 33.1226ZM22.6388 33.3074L22.6279 33.395C22.569 33.8698 22.7278 34.2092 23.4435 34.2981C23.9786 34.3652 24.3987 34.1545 24.4644 33.6331C24.5109 33.2595 24.3891 33.0378 24.0032 32.853L23.6364 32.6765C23.4325 32.5807 23.3805 32.4712 23.3956 32.3508C23.4175 32.1757 23.568 32.1004 23.7295 32.1209C23.9375 32.1469 23.9963 32.281 23.9649 32.5301L24.5369 32.6013L24.5492 32.5C24.6053 32.0525 24.3645 31.7596 23.7883 31.6871C23.1328 31.605 22.8318 31.9102 22.7811 32.3207C22.7374 32.6724 22.8906 32.9119 23.2259 33.0802L23.6529 33.2978C23.7719 33.3594 23.8691 33.447 23.8485 33.6084C23.8239 33.8069 23.683 33.8876 23.4886 33.863C23.2711 33.8356 23.1739 33.6782 23.2013 33.4606L23.2122 33.3772L22.6402 33.306L22.6388 33.3074ZM20.6614 32.9324L20.645 33.0186C20.5546 33.4894 20.6915 33.8383 21.4004 33.9738C21.93 34.0751 22.3638 33.8931 22.4623 33.3772C22.5335 33.0077 22.4253 32.7778 22.0531 32.5698L21.6987 32.3686C21.5016 32.2605 21.4565 32.1469 21.4797 32.0279C21.5126 31.8541 21.6672 31.7897 21.8273 31.8199C22.0326 31.8595 22.0819 31.9964 22.0353 32.2441L22.6019 32.3522L22.621 32.2523C22.7059 31.8089 22.4856 31.501 21.9135 31.3915C21.2649 31.267 20.9447 31.5516 20.8667 31.9581C20.7996 32.3057 20.9378 32.5547 21.2608 32.7436L21.6741 32.9885C21.789 33.0583 21.8793 33.1514 21.8492 33.3115C21.8109 33.5085 21.6645 33.5797 21.4729 33.5428C21.258 33.5017 21.1705 33.3375 21.2115 33.1226L21.2279 33.0405L20.6614 32.9324ZM19.464 31.8732L19.49 31.7788C19.5516 31.5544 19.6939 31.319 19.9402 31.3861C20.1961 31.4558 20.1838 31.6748 20.0962 32.047L19.464 31.8732ZM20.5875 32.578L20.6258 32.4384C20.8283 31.6981 20.801 31.1685 20.0784 30.9714C19.2437 30.7429 18.9535 31.3094 18.7756 31.9553C18.6114 32.5561 18.4568 33.2567 19.3545 33.5031C19.9375 33.6632 20.2933 33.4223 20.4698 32.8681L19.9128 32.7148C19.7951 33.0008 19.6679 33.135 19.4612 33.0788C19.2327 33.0159 19.2327 32.7162 19.3093 32.4343L19.3627 32.2413L20.5875 32.578ZM17.0582 32.7189L17.6672 32.9242L18.1475 31.501C18.2543 31.1835 18.5307 31.1534 18.7414 31.2259C18.803 31.2465 18.8673 31.2738 18.9275 31.2985L19.1232 30.7169C19.089 30.7004 19.0507 30.6827 19.0165 30.6703C18.7647 30.5855 18.543 30.6772 18.3418 30.8647L18.3323 30.8619L18.439 30.5444L17.8574 30.3474L17.0568 32.7189H17.0582ZM14.5868 32.5958L15.1793 32.8435L15.5857 31.8746L15.594 31.8787C15.6405 32.1154 15.7541 32.2687 15.9758 32.3618C16.4602 32.5657 16.8338 32.3029 17.1937 31.4449C17.5536 30.5869 17.4797 30.1366 16.9953 29.9341C16.764 29.8369 16.5628 29.8588 16.3439 30.019L16.3357 30.0148L16.4383 29.7699L15.8718 29.5318L14.5868 32.5958ZM15.9799 30.9358C16.1906 30.4336 16.3493 30.1982 16.6121 30.3077C16.8694 30.4158 16.8133 30.695 16.6025 31.1972C16.3918 31.6994 16.233 31.9348 15.9744 31.8267C15.713 31.7172 15.7691 31.4381 15.9799 30.9358ZM13.3592 30.1093L13.3182 30.1873C13.0951 30.6115 13.1239 30.9851 13.7629 31.3204C14.2405 31.5722 14.7072 31.5229 14.9521 31.0576C15.1273 30.7237 15.0917 30.4733 14.7961 30.1654L14.5156 29.8698C14.3582 29.7083 14.3486 29.5879 14.4048 29.4798C14.4869 29.3238 14.6538 29.306 14.7975 29.3826C14.9822 29.4798 14.9905 29.6262 14.8728 29.8479L15.3832 30.1161L15.4311 30.0258C15.6418 29.6262 15.5201 29.2677 15.0055 28.9967C14.4212 28.6888 14.0325 28.8681 13.8396 29.2348C13.6754 29.5482 13.7328 29.826 13.9874 30.1011L14.3103 30.4555C14.3993 30.5554 14.4595 30.6703 14.3842 30.8154C14.2912 30.9919 14.1297 31.0179 13.9573 30.9276C13.7643 30.8263 13.7274 30.6443 13.83 30.45L13.8697 30.3761L13.3592 30.1079V30.1093ZM13.0117 26.903L11.2012 29.6892L12.7968 30.7265L13.0965 30.2666L12.0633 29.5947L12.5505 28.8462L13.4865 29.4551L13.7862 28.9953L12.8502 28.3864L13.2758 27.7309L14.2706 28.3768L14.5703 27.917L13.013 26.9057L13.0117 26.903Z" fill="white"/>
<path opacity="0.25" d="M24.8378 6.06114C24.5272 5.82577 24.0893 5.81345 23.6911 5.98998C23.9566 5.90924 24.2097 5.92293 24.4027 6.04883C24.8406 6.33621 24.8214 7.14086 24.2973 7.72383C24.1016 7.92636 23.9073 8.09879 23.8238 8.18774C23.7403 8.27669 23.312 8.71734 23.1136 9.05261C22.5552 9.99549 22.6305 11.0328 23.2819 11.3708C23.635 11.5542 24.0852 11.4912 24.5122 11.2463C24.2754 11.2463 24.0674 11.1861 23.9018 11.0602C23.2395 10.5579 23.4393 9.24693 24.5642 8.04268C24.7489 7.82373 24.764 7.82373 24.8461 7.70467C25.2812 7.15729 25.31 6.41968 24.8378 6.06251" fill="white"/>
<path opacity="0.25" d="M42.3953 25.0705H48.9133V22.2966H45.0556V13.2743H42.3953V25.0705Z" fill="white"/>
<path opacity="0.25" d="M34.3774 25.0843H41.3019V22.5075H37.0104V20.3836H41.1363V17.9477H37.0104V15.8239H41.2608V13.2881H34.3774V25.0843Z" fill="white"/>
<path opacity="0.25" d="M33.1526 13.0759H29.3784V18.7783C29.3784 19.5693 29.2552 20.2631 29.0089 20.7763C28.7626 21.2895 28.4177 21.6644 27.9743 21.9012C27.5309 22.1379 26.885 22.2556 26.3116 22.2556C25.7383 22.2556 25.3989 22.1365 24.9596 21.8971C24.5203 21.6576 24.1768 21.2799 23.9305 20.764C23.6842 20.2481 23.561 19.5529 23.561 18.7619V13.0759H19.4529V19.6966C19.4529 21.0295 19.8018 22.1105 20.5011 22.9412C21.2004 23.7719 22.068 24.3603 23.1081 24.7065C24.1467 25.0528 25.2155 25.2252 26.313 25.2252C27.0985 25.2252 27.8867 25.1335 28.6763 24.9487C29.466 24.764 30.2022 24.4616 30.8851 24.0401C31.5679 23.6186 32.1167 23.0466 32.5327 22.3227C32.9473 21.5987 33.1553 20.7229 33.1553 19.6966V13.0759H33.1526Z" fill="white"/>
<path opacity="0.25" d="M11.769 25.0569H14.3199V20.4972H18.7359V17.9614H14.3199V15.9361H19.0684V13.3018H11.769V25.0569Z" fill="white"/>
<path opacity="0.25" d="M18.3404 25.3921C18.3308 25.4441 18.324 25.4961 18.324 25.5481C18.324 26.933 21.6343 28.0552 25.7178 28.0552C29.8013 28.0552 33.1116 26.933 33.1116 25.5481C33.1116 25.5208 33.1075 25.4934 33.1048 25.466C31.7322 26.3377 28.9679 26.933 25.7794 26.933C22.5909 26.933 19.6678 26.3035 18.339 25.3907" fill="white"/>
<path opacity="0.25" d="M27.3422 4.71327C26.8646 4.40673 26.2351 4.44779 25.6863 4.7598C26.0558 4.60653 26.4198 4.59147 26.714 4.75295C27.3818 5.11833 27.4653 6.3089 26.7934 7.23809C26.5416 7.56242 26.2857 7.84295 26.1776 7.98527C26.0695 8.12759 25.5166 8.83509 25.2785 9.35511C24.608 10.8207 24.857 12.3411 25.8368 12.753C26.3692 12.9761 27.0055 12.8242 27.5844 12.4068C27.245 12.4369 26.9371 12.3767 26.6839 12.2138C25.6658 11.5611 25.7725 9.60143 27.2204 7.67326C27.4557 7.32567 27.4763 7.32294 27.5775 7.13682C28.1277 6.27058 28.0661 5.17992 27.3408 4.71464" fill="white"/>
<path d="M24.404 5.93114C24.1139 5.69576 23.7034 5.68345 23.3298 5.85998C23.5775 5.77924 23.8156 5.79292 23.9962 5.91882C24.4068 6.2062 24.389 7.01086 23.8977 7.59383C23.7143 7.79636 23.5323 7.96879 23.4543 8.05774C23.3763 8.14669 22.9753 8.58733 22.7892 8.92261C22.2665 9.86548 22.3376 10.9028 22.9466 11.2408C23.2778 11.4242 23.6993 11.3612 24.0989 11.1163C23.8772 11.1163 23.6815 11.056 23.5268 10.9301C22.9069 10.4279 23.0944 9.11693 24.1468 7.91268C24.3192 7.69372 24.3329 7.69372 24.4109 7.57467C24.8187 7.02728 24.8447 6.28968 24.404 5.93251" fill="white"/>
<path d="M41.0911 24.2439H47.6091V21.5097H43.3956V12.4874H41.0911V24.2439Z" fill="white"/>
<path d="M33.1279 24.2439H40.0524V21.7082H35.4324V19.5843H39.7623V17.1471H35.4324V15.0232H40.0524V12.4874H33.1279V24.2439Z" fill="white"/>
<path d="M31.8526 12.4875H28.0921V18.0845C28.0921 18.8604 27.9689 19.5405 27.7239 20.0455C27.4776 20.5491 27.1355 20.9172 26.6935 21.1498C26.2515 21.3825 25.6083 21.4974 25.0363 21.4974C24.4643 21.4974 23.7855 21.3798 23.3462 21.1457C22.9069 20.9117 22.5662 20.5395 22.3212 20.0332C22.0749 19.5268 21.9531 18.844 21.9531 18.0681V12.4888H18.2021V18.9863C18.2021 20.2946 18.5497 21.3551 19.2463 22.1707C19.9428 22.9863 20.8077 23.5638 21.8436 23.9032C22.8782 24.2426 23.9429 24.4123 25.0376 24.4123C25.8204 24.4123 26.6059 24.322 27.3914 24.1399C28.1783 23.9593 28.9118 23.661 29.5919 23.2477C30.272 22.8344 30.8194 22.272 31.2327 21.5618C31.646 20.8515 31.8526 19.9921 31.8526 18.9836V12.4861V12.4875Z" fill="white"/>
<path d="M10.4648 24.2439H12.7693V19.6828H16.7598V17.1471H12.7693V15.1217H17.0609V12.4874H10.4648V24.2439Z" fill="white"/>
<path d="M17.7286 24.8612C17.719 24.9091 17.7122 24.9584 17.7122 25.0063C17.7122 26.2926 21.1662 27.3354 25.4262 27.3354C29.6862 27.3354 33.1403 26.2926 33.1403 25.0063C33.1403 24.9803 33.1362 24.9556 33.1334 24.931C31.702 25.7411 28.8173 26.294 25.4905 26.294C22.1638 26.294 19.1148 25.7083 17.7272 24.8612" fill="white"/>
<path d="M26.7208 4.60096C26.2624 4.29579 25.6589 4.33411 25.1348 4.64202C25.4878 4.49012 25.8381 4.4778 26.1201 4.63791C26.7605 5.00329 26.844 6.18565 26.2035 7.10799C25.9627 7.42958 25.7191 7.70738 25.6165 7.84833C25.5138 7.98929 24.987 8.68994 24.7598 9.20722C24.1221 10.6605 24.367 12.1741 25.3058 12.586C25.8163 12.8104 26.4266 12.6612 26.9794 12.2466C26.6551 12.2753 26.3595 12.2137 26.1159 12.0509C25.1375 11.3981 25.2347 9.45218 26.6141 7.54043C26.8371 7.19557 26.8577 7.19284 26.9548 7.0081C27.4789 6.15007 27.416 5.06487 26.7208 4.60096Z" fill="white"/>
</g>
</svg>
