<svg width="64" height="10" viewBox="0 0 64 10" fill="none" xmlns="http://www.w3.org/2000/svg">
<path opacity="0.5" d="M0.541186 9.55237V0.672368H2.40719V7.93237H6.19319V9.55237H0.541186ZM10.3651 7.99237H14.4031V9.55237H8.52306V0.672368H14.3431V2.23237H10.3651V4.23037H13.7371V5.79037H10.3651V7.99237ZM22.4391 0.672368H24.2391L21.6471 9.55237H18.8331L16.2411 0.672368H18.1731L20.2911 8.14237L22.4391 0.672368ZM28.3327 7.99237H32.3707V9.55237H26.4907V0.672368H32.3107V2.23237H28.3327V4.23037H31.7047V5.79037H28.3327V7.99237ZM35.0351 9.55237V0.672368H36.9011V7.93237H40.6871V9.55237H35.0351ZM50.8577 9.66637C50.0537 9.66637 49.3937 9.53837 48.8777 9.28237C48.3617 9.02237 47.9757 8.62237 47.7197 8.08237C47.4677 7.54237 47.3417 6.84637 47.3417 5.99437V0.672368H49.2077V6.19837C49.2077 6.87037 49.3417 7.35637 49.6097 7.65637C49.8817 7.95637 50.2977 8.10637 50.8577 8.10637C51.4137 8.10637 51.8257 7.95637 52.0937 7.65637C52.3657 7.35637 52.5017 6.87037 52.5017 6.19837V0.672368H54.3317V5.99437C54.3317 6.84637 54.2057 7.54237 53.9537 8.08237C53.7057 8.62237 53.3257 9.02237 52.8137 9.28237C52.3057 9.53837 51.6537 9.66637 50.8577 9.66637ZM57.3049 0.834368C58.1529 0.654368 59.0029 0.564368 59.8549 0.564368C61.1269 0.564368 62.0769 0.824368 62.7049 1.34437C63.3329 1.86437 63.6469 2.67437 63.6469 3.77437C63.6469 4.82637 63.3349 5.62437 62.7109 6.16837C62.0909 6.71237 61.1769 6.98437 59.9689 6.98437C59.7489 6.98437 59.4829 6.97437 59.1709 6.95437V9.55237H57.3049V0.834368ZM59.9929 5.50837C60.6289 5.50837 61.0929 5.37437 61.3849 5.10637C61.6809 4.83437 61.8289 4.39637 61.8289 3.79237C61.8289 3.18037 61.6809 2.73437 61.3849 2.45437C61.0929 2.17437 60.6389 2.03437 60.0229 2.03437C59.7109 2.03437 59.4269 2.05837 59.1709 2.10637V5.46037C59.4069 5.49237 59.6809 5.50837 59.9929 5.50837Z" fill="white"/>
</svg>
