<svg width="112" height="202" viewBox="0 0 112 202" fill="none" xmlns="http://www.w3.org/2000/svg">
<g clip-path="url(#clip0_2005_522)">
<path d="M58.355 71.7382L76.2665 114.374C76.4892 114.905 76.8815 115.341 77.3906 115.618L110.202 133.612C111.962 134.58 111.962 137.111 110.202 138.079L77.3906 156.073C76.8815 156.35 76.4892 156.786 76.2665 157.317L58.355 199.953C57.4854 202.027 54.5479 202.027 53.6677 199.953L35.7563 157.317C35.5336 156.786 35.1412 156.35 34.6322 156.073L1.84227 138.079C0.0818752 137.111 0.0818752 134.58 1.84227 133.612L34.6534 115.618C35.1624 115.341 35.5548 114.905 35.7775 114.374L53.6889 71.7382C54.5585 69.6644 57.496 69.6644 58.3762 71.7382H58.355Z" fill="#FCAE12"/>
<path d="M16.3071 48.3626L20.4642 58.2531C20.5597 58.4764 20.7187 58.6572 20.9308 58.7742L28.545 62.9537C29.2768 63.3579 29.2768 64.4107 28.545 64.8148L20.9308 68.9944C20.7187 69.1113 20.5597 69.2921 20.4642 69.5155L16.3071 79.406C15.9466 80.2674 14.7164 80.2674 14.3559 79.406L10.1988 69.5155C10.1034 69.2921 9.94429 69.1113 9.7322 68.9944L2.11798 64.8148C1.38625 64.4107 1.38625 63.3579 2.11798 62.9537L9.7322 58.7742C9.94429 58.6572 10.1034 58.4764 10.1988 58.2531L14.3559 48.3626C14.7164 47.5012 15.9466 47.5012 16.3071 48.3626Z" fill="white"/>
<path d="M40.0088 1.21802L46.6898 17.1172C46.7852 17.3512 46.9655 17.5533 47.1988 17.6809L59.4367 24.3915C60.232 24.8275 60.232 25.9655 59.4367 26.4015L47.1988 33.1121C46.9761 33.2398 46.7958 33.4312 46.6898 33.6758L40.0088 49.575C39.6164 50.5109 38.2908 50.5109 37.8984 49.575L31.2174 33.6758C31.122 33.4418 30.9417 33.2398 30.7084 33.1121L18.4705 26.4015C17.6752 25.9655 17.6752 24.8275 18.4705 24.3915L30.7084 17.6809C30.9311 17.5533 31.1114 17.3618 31.2174 17.1172L37.8984 1.21802C38.2908 0.282145 39.6164 0.282145 40.0088 1.21802Z" fill="#00669B"/>
</g>
<defs>
<clipPath id="clip0_2005_522">
<rect width="111" height="201" fill="white" transform="translate(0.516663 0.516113)"/>
</clipPath>
</defs>
</svg>
