<svg width="89" height="28" viewBox="0 0 89 28" fill="none" xmlns="http://www.w3.org/2000/svg">
<g opacity="0.5">
<path d="M9.39736 11.4276C8.8706 10.9657 8.34777 10.549 7.82691 10.1776C7.30605 9.80607 6.84022 9.42672 6.42747 9.03952C6.01274 8.65231 5.68254 8.24152 5.43488 7.80518C5.18723 7.3708 5.0693 6.85977 5.08502 6.27208C5.10861 5.34632 5.5135 4.89622 6.30167 4.91981C6.7046 4.9316 7.03678 5.09474 7.30015 5.40529L10.1816 2.12682C9.80815 1.7062 9.27156 1.39172 8.57577 1.18141C7.87801 0.973062 7.18419 0.857097 6.49233 0.837442C5.56854 0.809924 4.74302 0.921958 4.01579 1.17551C3.28855 1.42906 2.66744 1.78875 2.15641 2.25458C1.64538 2.7204 1.25031 3.28254 0.973174 3.94098C0.696037 4.59943 0.548623 5.3306 0.527003 6.13253C0.505382 6.95215 0.597761 7.69314 0.802174 8.35945C1.00659 9.02576 1.29945 9.639 1.67879 10.2031C2.05814 10.7672 2.50234 11.2881 3.00944 11.7676C3.51655 12.2472 4.05313 12.7091 4.6192 13.1533C5.11057 13.5425 5.5194 13.8806 5.84961 14.1656C6.17785 14.4525 6.44123 14.7041 6.63778 14.9243C6.83433 15.1444 6.97388 15.3449 7.05643 15.5237C7.13898 15.7046 7.17633 15.8756 7.1724 16.0348C7.15864 16.5871 6.97978 16.9998 6.63581 17.275C6.29185 17.5502 5.8614 17.6779 5.3425 17.6622C4.93958 17.6504 4.55827 17.4951 4.20054 17.2003L1.2621 20.4238C2.48858 21.3515 3.81334 21.8389 5.23637 21.8822C6.12085 21.9097 6.95619 21.7741 7.74239 21.4773C8.5286 21.1805 9.21849 20.7618 9.80815 20.2174C10.3998 19.6749 10.8676 19.04 11.2135 18.3108C11.5594 17.5816 11.7422 16.7994 11.7638 15.9621C11.7815 15.2505 11.6262 14.5233 11.3 13.7843C10.9717 13.0433 10.3388 12.259 9.39736 11.4276Z" fill="white"/>
<path d="M16.3355 4.93525H18.3423V1.11626H17.4755C17.106 1.11626 16.6952 1.11233 16.2432 1.10447C15.7911 1.09661 15.3194 1.09268 14.8319 1.09268C14.3445 1.09268 13.8767 1.08875 13.4325 1.08089C12.9863 1.07302 12.5794 1.06909 12.2099 1.06909H11.3628V4.88808H13.0138C13.0983 7.25652 13.1396 11.6632 13.1396 18.1081H16.4417V13.7093C16.4417 11.9541 16.4318 10.3542 16.4102 8.91148C16.3886 7.47076 16.365 6.14404 16.3375 4.93525" fill="white"/>
<path d="M37.795 7.22514C37.3076 7.54945 36.6236 7.81086 35.747 8.00545C35.747 7.22514 35.743 6.49004 35.7371 5.80015C35.7293 5.11025 35.6978 4.49308 35.6428 3.94667C36.6177 4.02529 37.343 4.19826 37.8166 4.4636C38.2903 4.73091 38.5262 5.1358 38.5262 5.68222C38.5262 6.38587 38.2825 6.89887 37.795 7.22318M40.2205 11.5768C39.8451 11.2643 39.5031 10.9694 39.1964 10.6884C38.8898 10.4093 38.6461 10.1596 38.4653 9.93755C39.5522 9.56017 40.3875 9 40.9733 8.259C41.559 7.518 41.8499 6.63942 41.8499 5.62522C41.8499 4.83312 41.673 4.12946 41.3172 3.51819C40.9615 2.90691 40.4524 2.39392 39.792 1.97723C39.1296 1.56054 38.3316 1.24606 37.398 1.03182C36.4644 0.817576 35.4187 0.709473 34.263 0.709473C33.8581 0.709473 33.4925 0.719301 33.1662 0.738956C32.838 0.758611 32.5491 0.780231 32.2995 0.807748C32.3702 1.95168 32.4154 3.09953 32.4351 4.25132C32.4547 5.40311 32.4665 6.55097 32.4665 7.6949C32.4665 10.2442 32.4036 12.7148 32.2778 15.1068H35.4973C35.5386 14.6135 35.5701 14.0789 35.5917 13.5069C35.6133 12.935 35.631 12.2981 35.6428 11.5945C35.9494 11.8028 36.3366 12.0878 36.8024 12.4514C37.2683 12.8151 37.742 13.2023 38.2235 13.6131C38.7051 14.0219 39.1611 14.4287 39.5935 14.8317C40.0259 15.2346 40.3659 15.5786 40.6175 15.8655L42.6656 13.446C42.2469 13.1472 41.8302 12.8386 41.4116 12.5202C40.9929 12.2018 40.5959 11.8854 40.2205 11.5748" fill="white"/>
<path d="M46.1347 9.93765C46.1347 9.57403 46.1583 9.12786 46.2074 8.60111C46.2566 8.07435 46.3214 7.51811 46.406 6.93239C46.4905 6.34667 46.5809 5.75308 46.6772 5.1477C46.7755 4.54429 46.8718 3.97429 46.9701 3.44164C47.0683 2.90899 47.1607 2.43137 47.2511 2.00878C47.3415 1.5862 47.4143 1.27171 47.4713 1.06337L44.1476 0.750854C44.0925 0.919888 44.0179 1.20882 43.9274 1.61961C43.837 2.02844 43.7427 2.51392 43.6464 3.07212C43.5481 3.63229 43.4498 4.22981 43.3535 4.86663C43.2552 5.50346 43.1648 6.13439 43.0823 6.75942C42.9978 7.38249 42.9329 7.97607 42.8838 8.53428C42.8346 9.09445 42.811 9.56224 42.811 9.93962C42.811 11.8639 43.3614 13.3439 44.4621 14.3777C45.5627 15.4116 47.1371 15.9285 49.1852 15.9285V12.8466C48.0845 12.8466 47.3003 12.6245 46.8344 12.1823C46.3666 11.74 46.1347 10.9931 46.1347 9.93962" fill="white"/>
<path d="M69.4419 0.852944C68.8562 0.852944 68.3236 0.994461 67.842 1.27553C67.3624 1.55856 66.9674 1.99687 66.6607 2.59242C66.6607 2.35066 66.6784 2.0637 66.7138 1.73349C66.7492 1.40329 66.8082 1.1006 66.8907 0.827393L63.7557 1.45636C63.6024 2.42339 63.4845 3.4828 63.4 4.63459C63.3174 5.78638 63.2742 7.07182 63.2742 8.48896C63.2742 10.4387 63.3371 12.2509 63.4629 13.9275C63.5887 15.6021 63.7832 17.1647 64.0486 18.6153L67.2681 17.3102C67.0303 16.2468 66.8455 15.1835 66.7138 14.1201C66.5802 13.0568 66.5153 12.1134 66.5153 11.2918C66.5153 9.2614 66.759 7.65558 67.2465 6.47038C67.7339 5.28517 68.4297 4.69355 69.3358 4.69355C70.1299 4.69355 70.5269 5.53872 70.5269 7.23103C70.5269 7.79513 70.4679 8.52433 70.35 9.41864C70.2321 10.3129 70.0748 11.2525 69.8803 12.2333C69.6857 13.216 69.4616 14.1909 69.212 15.1579C68.9604 16.125 68.7029 16.9701 68.4376 17.6954L71.5097 19.146C73.0152 14.8769 73.7661 10.9773 73.7661 7.4492C73.7661 5.22621 73.3926 3.56928 72.6477 2.48235C71.9028 1.39543 70.8316 0.850979 69.44 0.850979" fill="white"/>
<path d="M82.8584 10.9281C82.6009 11.6514 82.2687 12.3571 81.8619 13.043C81.455 13.729 81.0029 14.3619 80.5076 14.9397C80.0123 15.5156 79.515 15.952 79.0197 16.2448C79.0197 11.6298 79.2851 8.00345 79.8177 5.36573C82.1036 5.86104 83.2456 7.06983 83.2456 8.9921C83.2456 9.56013 83.1159 10.2048 82.8603 10.9281M87.2827 5.54459C86.7344 4.52842 85.9442 3.67146 84.9182 2.97567C83.8903 2.27988 82.6559 1.74919 81.2113 1.38164C79.7666 1.01606 78.149 0.831299 76.3604 0.831299C75.297 6.1598 74.7664 11.335 74.7664 16.3529C74.7664 17.5067 74.8017 18.5504 74.8725 19.484C74.9433 20.4176 75.0494 21.251 75.1909 21.9841C76.8026 21.6913 78.3809 21.1684 79.9219 20.4176C81.4629 19.6668 82.8407 18.7273 84.0534 17.601C85.2661 16.4748 86.2469 15.1835 86.9899 13.727C87.7348 12.2725 88.1063 10.7021 88.1063 9.01569C88.1063 7.71452 87.8311 6.55683 87.2827 5.54066" fill="white"/>
<path d="M30.721 5.79621C30.3927 4.82132 29.9407 3.97025 29.3628 3.24105C28.785 2.51184 28.0951 1.93595 27.2931 1.51533C26.4912 1.09471 25.6244 0.884399 24.6908 0.884399C23.7572 0.884399 22.8786 1.08881 22.0983 1.49567C21.318 1.90253 20.6497 2.46664 20.0915 3.18798C19.5353 3.91129 19.1068 4.76235 18.8061 5.74314C18.5073 6.72393 18.356 7.78334 18.356 8.91941C18.356 10.195 18.468 11.451 18.6901 12.6853C18.9122 13.9197 19.2051 15.0616 19.5687 16.1132L22.8078 15.3565C22.7096 15.0754 22.6191 14.7963 22.5366 14.5152C22.454 14.2361 22.397 13.9334 22.3695 13.6111C22.7725 13.3163 23.2029 13.0431 23.655 12.7895C24.107 12.5379 24.567 12.3138 25.0348 12.1173C25.5006 11.9207 25.9605 11.7537 26.4146 11.6122C26.8686 11.4726 27.2951 11.3665 27.7 11.2977C27.5034 12.2647 27.3265 13.0961 27.1673 13.7899C27.0062 14.4838 26.8647 15.0616 26.7389 15.5255L29.978 16.3038C30.2846 15.1265 30.5225 14.1339 30.6895 13.328C30.8566 12.5222 30.9785 11.8382 31.0551 11.2761C31.1318 10.7159 31.177 10.252 31.1907 9.88841C31.2045 9.52479 31.2124 9.20244 31.2124 8.92137C31.2124 7.81283 31.0492 6.77111 30.721 5.79818V5.79621ZM27.7884 9.71741L25.1409 9.11596L23.1302 10.8613L22.91 8.26882L20.5416 6.96373L23.0614 5.95542L23.6196 3.41008L25.3866 5.38149L28.0951 5.10239L26.6779 7.33521L27.7904 9.71741H27.7884Z" fill="white"/>
<path d="M61.6919 5.79621C61.3637 4.82132 60.9116 3.97025 60.3338 3.24105C59.7559 2.51184 59.066 1.93595 58.2641 1.51533C57.4622 1.09471 56.5954 0.884399 55.6617 0.884399C54.7281 0.884399 53.8495 1.08881 53.0692 1.49567C52.2889 1.90253 51.6207 2.46664 51.0625 3.18798C50.5062 3.91129 50.0777 4.76235 49.777 5.74314C49.4763 6.72393 49.3269 7.78334 49.3269 8.91941C49.3269 10.195 49.4389 11.451 49.661 12.6853C49.8831 13.9197 50.176 15.0616 50.5396 16.1132L53.7788 15.3565C53.6805 15.0754 53.5901 14.7963 53.5076 14.5152C53.425 14.2361 53.368 13.9334 53.3405 13.6111C53.7434 13.3163 54.1739 13.0431 54.6259 12.7895C55.078 12.5379 55.5379 12.3138 56.0057 12.1173C56.4715 11.9207 56.9315 11.7537 57.3855 11.6122C57.8376 11.4726 58.2661 11.3665 58.6709 11.2977C58.4744 12.2647 58.2975 13.0961 58.1383 13.7899C57.9771 14.4838 57.8356 15.0616 57.7098 15.5255L60.949 16.3038C61.2556 15.1265 61.4915 14.1339 61.6585 13.328C61.8256 12.5222 61.9475 11.8382 62.0241 11.2761C62.1008 10.7159 62.146 10.252 62.1597 9.88841C62.1735 9.52479 62.1813 9.20244 62.1813 8.92137C62.1813 7.81283 62.0182 6.77111 61.69 5.79818L61.6919 5.79621ZM57.5585 7.33324L58.6709 9.71544L56.0234 9.114L54.0127 10.8594L53.7925 8.26686L51.4241 6.96176L53.9439 5.95345L54.5021 3.40812L56.2691 5.37952L58.9776 5.10042L57.5604 7.33324H57.5585Z" fill="white"/>
<path d="M25.8069 24.384C25.8069 23.4779 25.8187 22.5069 25.8462 21.4711C26.1528 21.4573 26.825 21.4495 27.8608 21.4495C28.5036 21.4495 29.0225 21.4573 29.4195 21.4711C29.445 21.4711 29.4686 21.4809 29.4883 21.5006C29.5079 21.5202 29.5178 21.5418 29.5178 21.5694C29.5237 21.9644 29.5276 22.2435 29.5276 22.4086C29.5276 22.6622 29.5237 22.9 29.5178 23.1221C29.2092 23.1359 28.7375 23.1437 28.1046 23.1437C27.9847 23.1437 27.8766 23.1437 27.7783 23.1418C27.7783 23.2263 27.7783 23.3599 27.7744 23.5467C27.7724 23.7314 27.7704 23.8749 27.7685 23.9771C28.2972 23.983 28.6608 23.9909 28.8554 23.9968C28.8809 23.9968 28.9045 24.0066 28.9242 24.0262C28.9438 24.0459 28.9537 24.0675 28.9537 24.095C28.9596 24.4901 28.9635 24.7692 28.9635 24.9343C28.9635 25.1879 28.9596 25.4257 28.9537 25.6478C28.7178 25.6596 28.3247 25.6675 27.7763 25.6694C27.7842 26.5755 27.7881 27.118 27.7881 27.2988C27.4815 27.3146 27.1965 27.3204 26.939 27.3204C26.6815 27.3204 26.3395 27.3126 25.9445 27.2988C25.9189 27.2988 25.8953 27.289 25.8757 27.2693C25.856 27.2497 25.8462 27.2281 25.8462 27.2006C25.8206 25.9839 25.8069 25.0444 25.8069 24.384Z" fill="white"/>
<path d="M29.8281 24.4194C29.8281 23.4897 29.8399 22.505 29.8674 21.4691C30.1741 21.4554 30.4591 21.4475 30.7165 21.4475C30.974 21.4475 31.316 21.4554 31.7111 21.4691C31.7366 21.4691 31.7602 21.479 31.7799 21.4986C31.7995 21.5183 31.8094 21.5399 31.8094 21.5674C31.8349 22.7841 31.8487 23.8336 31.8487 24.7142C31.8487 24.9265 31.8565 25.0994 31.8703 25.2311C31.884 25.3648 31.9096 25.465 31.945 25.5338C31.9804 25.6026 32.0197 25.6478 32.0629 25.6714C32.1062 25.695 32.1632 25.7048 32.2359 25.7048C32.3322 25.7048 32.4029 25.6832 32.4521 25.6399C32.5012 25.5967 32.5386 25.5024 32.5641 25.3569C32.5916 25.2115 32.6034 24.9972 32.6034 24.7122C32.6034 23.588 32.6172 22.5069 32.6427 21.4711C32.9513 21.4573 33.2344 21.4495 33.4918 21.4495C33.7493 21.4495 34.0913 21.4573 34.4864 21.4711C34.5119 21.4711 34.5355 21.4809 34.5552 21.5006C34.5748 21.5202 34.5847 21.5419 34.5847 21.5694C34.6102 22.786 34.624 23.7373 34.624 24.4213C34.624 24.838 34.5925 25.2075 34.5296 25.5299C34.4667 25.8542 34.3763 26.1294 34.2584 26.3574C34.1405 26.5854 33.9911 26.774 33.8122 26.9234C33.6334 27.0748 33.4329 27.1868 33.2108 27.2615C32.9887 27.3362 32.739 27.3794 32.458 27.3951C32.23 27.3951 32.0236 27.3853 31.8408 27.3676C31.658 27.348 31.4811 27.3185 31.3101 27.2733C31.1391 27.23 30.9878 27.1711 30.8561 27.0964C30.7244 27.0237 30.6025 26.9313 30.4885 26.8232C30.3745 26.7131 30.2782 26.5854 30.1996 26.434C30.121 26.2846 30.0522 26.1117 29.9952 25.9151C29.9382 25.7186 29.895 25.4965 29.8694 25.2488C29.8419 25.0012 29.8301 24.724 29.8301 24.4194" fill="white"/>
<path d="M35.1411 24.384C35.1411 23.4779 35.1529 22.5069 35.1804 21.4711C35.489 21.4573 35.7544 21.4495 35.9824 21.4495C36.175 21.4495 36.4541 21.4573 36.8216 21.4711C36.8688 21.4711 36.9042 21.5045 36.9278 21.5674L37.9321 24.0538L37.8987 21.4711C38.2073 21.4573 38.4904 21.4495 38.7478 21.4495C39.0053 21.4495 39.3001 21.4573 39.6461 21.4711C39.6736 21.4711 39.6972 21.4829 39.7149 21.5006C39.7326 21.5202 39.7424 21.5418 39.7424 21.5674C39.7679 22.784 39.7817 23.7236 39.7817 24.384C39.7817 25.2901 39.7699 26.261 39.7424 27.2969C39.4731 27.3126 39.2235 27.3185 38.9896 27.3185C38.7125 27.3185 38.4176 27.3106 38.1012 27.2969C38.052 27.2969 38.0167 27.2634 37.995 27.2006L36.9907 24.7142L37.0241 27.2969C36.7175 27.3126 36.4502 27.3185 36.2222 27.3185C35.9666 27.3185 35.6502 27.3106 35.2748 27.2969C35.2473 27.2969 35.2237 27.2851 35.206 27.2654C35.1883 27.2477 35.1785 27.2241 35.1785 27.1986C35.1529 25.9819 35.1392 25.0424 35.1392 24.382" fill="white"/>
<path d="M43.4138 24.3838C43.4138 24.0575 43.4177 23.5877 43.4236 22.9686C43.4295 22.3495 43.4335 21.8836 43.4335 21.5672C44.1509 21.4571 44.7818 21.4021 45.3263 21.4021C45.5857 21.4021 45.8078 21.408 45.9926 21.4198C46.1754 21.4316 46.366 21.4552 46.5626 21.4925C46.7591 21.5299 46.9223 21.5829 47.0539 21.6498C47.1856 21.7166 47.3114 21.807 47.4353 21.921C47.5571 22.035 47.6554 22.1726 47.7262 22.3318C47.7969 22.493 47.8519 22.6875 47.8952 22.9175C47.9365 23.1475 47.9581 23.4089 47.9581 23.7037C47.9581 23.9081 47.9463 24.0949 47.9227 24.2678C47.8991 24.4388 47.8637 24.5941 47.8185 24.7317C47.7733 24.8693 47.7163 24.9951 47.6456 25.1071C47.5748 25.2191 47.4962 25.3174 47.4097 25.4019C47.3232 25.4864 47.223 25.5611 47.1109 25.624C46.9989 25.6869 46.881 25.74 46.7552 25.7832C46.6314 25.8265 46.4918 25.8599 46.3405 25.8854C46.1891 25.911 46.0338 25.9306 45.8746 25.9424C45.7174 25.9542 45.5444 25.9601 45.3577 25.9601C45.3695 26.705 45.3774 27.1512 45.3774 27.3006C45.0747 27.3144 44.7897 27.3203 44.5224 27.3203C44.3062 27.3203 43.976 27.3144 43.5318 27.3006C43.5062 27.3006 43.4826 27.2908 43.463 27.2711C43.4433 27.2515 43.4335 27.2298 43.4335 27.2023C43.4335 26.9036 43.4295 26.4417 43.4236 25.8166C43.4177 25.1916 43.4138 24.716 43.4138 24.3877M45.3361 24.3641H45.4894C45.5503 24.3641 45.5995 24.3602 45.6427 24.3543C45.686 24.3484 45.7292 24.3327 45.7764 24.3071C45.8235 24.2816 45.8609 24.2482 45.8884 24.203C45.9179 24.1577 45.9395 24.0968 45.9592 24.0182C45.9768 23.9396 45.9867 23.8433 45.9867 23.7312C45.9867 23.6192 45.9867 23.5347 45.9827 23.4698C45.9808 23.405 45.9729 23.344 45.9611 23.289C45.9493 23.234 45.9336 23.1927 45.9179 23.1671C45.9002 23.1416 45.8746 23.118 45.8393 23.0983C45.8039 23.0787 45.7646 23.0669 45.7233 23.063C45.682 23.059 45.627 23.0571 45.5582 23.0571H45.3381V24.3641H45.3361Z" fill="white"/>
<path d="M47.6592 27.2163C47.6592 27.1907 47.6749 27.0885 47.7064 26.9136C47.7928 26.3809 47.8892 25.8286 47.9992 25.2586C48.1093 24.6886 48.2508 23.9811 48.4257 23.1339C48.6007 22.2887 48.7147 21.7345 48.7677 21.4691C49.0921 21.4554 49.5363 21.4475 50.1023 21.4475C50.6291 21.4475 51.091 21.4554 51.486 21.4691C51.5116 21.4691 51.5352 21.479 51.5588 21.4966C51.5824 21.5163 51.5941 21.5379 51.6 21.5654C51.6708 21.9271 51.7927 22.5167 51.9637 23.3344C52.1347 24.154 52.2801 24.8773 52.4 25.5063C52.5199 26.1353 52.6241 26.7308 52.7086 27.2949C52.402 27.3106 52.1209 27.3165 51.8634 27.3165C51.4507 27.3165 51.1342 27.3087 50.9121 27.2949C50.8846 27.2949 50.861 27.2831 50.8374 27.2654C50.8158 27.2477 50.802 27.2241 50.7981 27.1986C50.7254 26.8271 50.6664 26.5028 50.6212 26.2276H49.721C49.6699 26.5736 49.607 26.9293 49.5343 27.2949C49.2237 27.3106 48.9564 27.3165 48.7304 27.3165C48.4611 27.3165 48.1309 27.3087 47.7378 27.2949C47.7142 27.2949 47.6946 27.287 47.6789 27.2713C47.6651 27.2556 47.6572 27.2359 47.6572 27.2143M49.8842 24.9658H50.4306C50.3913 24.7004 50.3382 24.3231 50.2733 23.8317C50.2065 23.3403 50.1593 22.9924 50.1298 22.79C50.0964 23.0533 50.0552 23.4307 50.0021 23.9241C49.949 24.4174 49.9097 24.7633 49.8861 24.9658" fill="white"/>
<path d="M52.99 24.256C52.99 23.9317 52.9939 23.4836 52.9998 22.9116C53.0057 22.3377 53.0096 21.8895 53.0096 21.5672C53.334 21.5161 53.6779 21.4768 54.0415 21.4473C54.4071 21.4178 54.7255 21.4021 54.9987 21.4021C55.2346 21.4021 55.4331 21.406 55.5943 21.4139C55.7535 21.4218 55.9265 21.4375 56.1112 21.463C56.296 21.4886 56.4493 21.524 56.5692 21.5711C56.6891 21.6183 56.809 21.6832 56.9289 21.7657C57.0488 21.8483 57.1411 21.9485 57.2099 22.0664C57.2768 22.1844 57.3318 22.3298 57.3731 22.5008C57.4144 22.6718 57.436 22.8684 57.436 23.0905C57.436 23.4423 57.3456 23.7509 57.1647 24.0182C56.9839 24.2855 56.7304 24.4938 56.408 24.6472C56.6282 24.7238 56.807 24.8791 56.9446 25.113C57.2669 25.7459 57.5244 26.4731 57.717 27.2986C57.4203 27.334 57.0802 27.3517 56.6989 27.3517C56.4237 27.3517 56.1643 27.3438 55.9206 27.3281C55.8891 27.3281 55.8596 27.3163 55.8302 27.2986C55.8007 27.2809 55.781 27.2574 55.7712 27.2298C55.4547 26.2707 55.211 25.4982 55.0361 24.9086H54.9064C54.9103 25.0894 54.9182 25.4609 54.9299 26.023C54.9417 26.5852 54.9496 27.0097 54.9496 27.2967C54.6843 27.3085 54.4012 27.3144 54.0985 27.3144C53.8253 27.3144 53.4932 27.3085 53.106 27.2967C53.0784 27.2967 53.0549 27.2868 53.0372 27.2691C53.0195 27.2515 53.0096 27.2279 53.0096 27.2004C53.0096 26.9016 53.0057 26.4181 52.9998 25.7518C52.9939 25.0855 52.99 24.5882 52.99 24.258M54.9024 23.7135H55.0675C55.2208 23.7135 55.3447 23.6762 55.439 23.5976C55.5334 23.5209 55.5805 23.4187 55.5805 23.2929C55.5805 23.1337 55.5471 23.0158 55.4842 22.9391C55.4194 22.8625 55.3054 22.8232 55.1403 22.8232C55.0557 22.8232 54.9791 22.8251 54.9064 22.831C54.9024 23.2104 54.9024 23.5032 54.9024 23.7116" fill="white"/>
<path d="M58.0786 24.3841C58.0786 23.478 58.0924 22.5071 58.1179 21.4712C58.4245 21.4575 58.7076 21.4496 58.967 21.4496C59.2265 21.4496 59.5665 21.4575 59.9616 21.4712C59.9871 21.4712 60.0107 21.4811 60.0304 21.5007C60.05 21.5204 60.0598 21.542 60.0598 21.5695C60.0598 21.6462 60.0618 21.7602 60.0618 21.9115C60.0618 22.0727 60.05 22.6073 60.0245 23.5134C60.0481 23.5134 60.0815 23.5134 60.1306 23.5134C60.1778 23.5134 60.2151 23.5134 60.2387 23.5134C60.2977 23.3326 60.4058 23.0161 60.5611 22.568C60.7163 22.1179 60.8323 21.7798 60.907 21.5479C60.9168 21.5204 60.9365 21.4988 60.9659 21.4791C60.9954 21.4594 61.0249 21.4516 61.0564 21.4496C61.3001 21.4339 61.5595 21.426 61.8347 21.426C62.1826 21.426 62.5049 21.4437 62.8037 21.4791C62.6052 22.3282 62.332 23.0967 61.9841 23.7807C61.7934 24.107 61.5399 24.278 61.2274 24.2957V24.3094C61.3925 24.3193 61.5418 24.3684 61.6755 24.4588C61.8092 24.5492 61.9232 24.6711 62.0136 24.8244C62.2986 25.3865 62.5678 26.212 62.8234 27.3009C62.5266 27.3363 62.1865 27.354 61.8072 27.354C61.532 27.354 61.2726 27.3461 61.0288 27.3304C60.9974 27.3304 60.9679 27.3186 60.9384 27.3009C60.9089 27.2832 60.8893 27.2597 60.8795 27.2321C60.7203 26.7486 60.4962 25.9782 60.2053 24.9227H60.0186C60.0186 24.9757 60.0284 25.2509 60.0422 25.7501C60.0559 26.2474 60.0638 26.6268 60.0638 26.8843C60.0638 26.9766 60.0638 27.1142 60.0598 27.299C59.7532 27.3147 59.4702 27.3206 59.2107 27.3206C58.9513 27.3206 58.6113 27.3127 58.2162 27.299C58.1906 27.299 58.1671 27.2891 58.1474 27.2695C58.1278 27.2498 58.1179 27.2282 58.1179 27.2007C58.0924 25.984 58.0786 25.0445 58.0786 24.3841Z" fill="white"/>
</g>
</svg>
