<svg width="96" height="24" viewBox="0 0 96 24" fill="none" xmlns="http://www.w3.org/2000/svg">
<g opacity="0.5">
<path d="M10.2156 12.1394C9.6466 11.6404 9.08182 11.1903 8.51916 10.789C7.9565 10.3877 7.45329 9.97789 7.00741 9.55962C6.55941 9.14134 6.20271 8.69758 5.93518 8.22622C5.66765 7.75699 5.54026 7.20495 5.55724 6.5701C5.58272 5.57005 6.02011 5.08383 6.87153 5.10931C7.30679 5.12205 7.66562 5.29828 7.95013 5.63375L11.0628 2.09219C10.6594 1.63781 10.0797 1.29809 9.32812 1.07091C8.57437 0.845844 7.82486 0.720573 7.07748 0.69934C6.07956 0.669615 5.1878 0.790639 4.4022 1.06454C3.6166 1.33844 2.94566 1.72699 2.39362 2.2302C1.84157 2.7334 1.4148 3.34065 1.11543 4.05193C0.816049 4.76322 0.656807 5.55307 0.633451 6.41935C0.610095 7.30474 0.709888 8.1052 0.930704 8.82498C1.15152 9.54475 1.46788 10.2072 1.87767 10.8166C2.28745 11.4259 2.76731 11.9886 3.3151 12.5067C3.8629 13.0247 4.44254 13.5237 5.05403 14.0036C5.58484 14.424 6.02648 14.7892 6.38318 15.097C6.73776 15.407 7.02228 15.6788 7.2346 15.9166C7.44693 16.1544 7.59768 16.371 7.68685 16.5642C7.77603 16.7595 7.81637 16.9442 7.81212 17.1162C7.79726 17.7129 7.60405 18.1587 7.23248 18.456C6.86091 18.7532 6.39592 18.8913 5.83539 18.8743C5.40012 18.8615 4.98821 18.6938 4.60178 18.3753L1.42754 21.8574C2.75244 22.8596 4.18351 23.3862 5.72073 23.4329C6.67619 23.4626 7.57857 23.3161 8.42786 22.9955C9.27716 22.6749 10.0224 22.2226 10.6594 21.6345C11.2985 21.0485 11.8038 20.3627 12.1775 19.5749C12.5512 18.7872 12.7487 17.9422 12.772 17.0377C12.7911 16.2691 12.6234 15.4835 12.2709 14.6851C11.9163 13.8847 11.2327 13.0375 10.2156 12.1394Z" fill="white"/>
<path d="M17.7107 5.12624H19.8785V1.00079H18.9421C18.543 1.00079 18.0992 0.99654 17.6109 0.988047C17.1225 0.979555 16.6129 0.975308 16.0864 0.975308C15.5598 0.975308 15.0545 0.971062 14.5746 0.962569C14.0927 0.954076 13.6532 0.949829 13.254 0.949829H12.3389V5.07528H14.1224C14.2137 7.63379 14.2583 12.3941 14.2583 19.3562H17.8253V14.6044C17.8253 12.7083 17.8147 10.98 17.7913 9.42155C17.768 7.86522 17.7425 6.43203 17.7128 5.12624" fill="white"/>
<path d="M40.8923 7.59982C40.3657 7.95015 39.6269 8.23254 38.6799 8.44274C38.6799 7.59982 38.6756 6.80573 38.6693 6.06047C38.6608 5.31521 38.6268 4.64851 38.5674 4.05825C39.6205 4.14318 40.404 4.33003 40.9157 4.61667C41.4274 4.90543 41.6821 5.34281 41.6821 5.93307C41.6821 6.69319 41.4189 7.24736 40.8923 7.59769M43.5124 12.3007C43.1068 11.9631 42.7374 11.6446 42.4062 11.341C42.0749 11.0395 41.8117 10.7698 41.6163 10.5299C42.7905 10.1222 43.6929 9.5171 44.3256 8.71664C44.9583 7.91618 45.2725 6.96709 45.2725 5.8715C45.2725 5.01584 45.0815 4.25572 44.6971 3.59539C44.3128 2.93506 43.7629 2.3809 43.0495 1.93077C42.334 1.48064 41.472 1.14092 40.4634 0.909491C39.4549 0.678058 38.3253 0.561279 37.0768 0.561279C36.6395 0.561279 36.2445 0.571896 35.8921 0.593128C35.5375 0.614361 35.2254 0.637716 34.9557 0.667441C35.0322 1.90317 35.081 3.14314 35.1022 4.38736C35.1235 5.63158 35.1362 6.87155 35.1362 8.10727C35.1362 10.8611 35.0683 13.53 34.9324 16.114H38.4102C38.4548 15.5811 38.4888 15.0036 38.5122 14.3857C38.5355 13.7678 38.5546 13.0799 38.5674 12.3198C38.8986 12.5448 39.3169 12.8527 39.8201 13.2455C40.3233 13.6383 40.835 14.0566 41.3552 14.5003C41.8754 14.942 42.368 15.3815 42.8351 15.8168C43.3022 16.252 43.6695 16.6236 43.9413 16.9336L46.1537 14.3199C45.7014 13.9971 45.2513 13.6638 44.7991 13.3198C44.3468 12.9759 43.9179 12.634 43.5124 12.2985" fill="white"/>
<path d="M49.9012 10.5299C49.9012 10.1371 49.9267 9.65508 49.9797 9.08605C50.0328 8.51702 50.1029 7.91615 50.1942 7.28342C50.2855 6.6507 50.3832 6.00948 50.4872 5.35552C50.5934 4.70369 50.6974 4.08795 50.8036 3.51255C50.9097 2.93715 51.0095 2.4212 51.1072 1.96471C51.2049 1.50821 51.2834 1.16849 51.345 0.94343L47.7546 0.605835C47.6951 0.788434 47.6145 1.10055 47.5168 1.54431C47.4191 1.98594 47.3172 2.51038 47.2132 3.11338C47.107 3.7185 47.0008 4.36397 46.8968 5.0519C46.7906 5.73983 46.693 6.42139 46.6038 7.09658C46.5125 7.76964 46.4424 8.41086 46.3893 9.01386C46.3363 9.61899 46.3108 10.1243 46.3108 10.532C46.3108 12.6106 46.9053 14.2094 48.0943 15.3263C49.2833 16.4431 50.984 17.0015 53.1965 17.0015V13.6722C52.0074 13.6722 51.1603 13.4323 50.6571 12.9546C50.1517 12.4769 49.9012 11.67 49.9012 10.532" fill="white"/>
<path d="M75.0785 0.716323C74.4458 0.716323 73.8704 0.869196 73.3502 1.17282C72.8321 1.47857 72.4053 1.95205 72.0741 2.59539C72.0741 2.33423 72.0932 2.02424 72.1314 1.66753C72.1697 1.31083 72.2334 0.983851 72.3225 0.688721L68.936 1.36816C68.7704 2.41279 68.643 3.55722 68.5517 4.80143C68.4625 6.04565 68.4158 7.43425 68.4158 8.96511C68.4158 11.0714 68.4837 13.029 68.6196 14.8401C68.7555 16.6491 68.9657 18.3371 69.2523 19.904L72.7302 18.4942C72.4733 17.3455 72.2737 16.1969 72.1314 15.0482C71.9871 13.8995 71.917 12.8804 71.917 11.9928C71.917 9.79954 72.1803 8.06485 72.7068 6.78454C73.2334 5.50423 73.985 4.86513 74.9638 4.86513C75.8216 4.86513 76.2505 5.77813 76.2505 7.60623C76.2505 8.2156 76.1868 9.00332 76.0594 9.9694C75.932 10.9355 75.7622 11.9504 75.552 13.0099C75.3418 14.0715 75.0997 15.1246 74.8301 16.1693C74.5583 17.2139 74.2802 18.1269 73.9935 18.9104L77.3121 20.4773C78.9385 15.8656 79.7496 11.6531 79.7496 7.84191C79.7496 5.44053 79.3462 3.65064 78.5415 2.47649C77.7368 1.30234 76.5796 0.7142 75.0764 0.7142" fill="white"/>
<path d="M89.5717 11.6001C89.2936 12.3814 88.9347 13.1437 88.4952 13.8847C88.0557 14.6257 87.5674 15.3094 87.0323 15.9336C86.4973 16.5557 85.9601 17.0271 85.425 17.3434C85.425 12.3581 85.7117 8.44069 86.287 5.59131C88.7564 6.12636 89.99 7.43215 89.99 9.50868C89.99 10.1223 89.8498 10.8187 89.5738 11.6001M94.3511 5.78452C93.7587 4.68681 92.9052 3.76107 91.7969 3.00945C90.6864 2.25782 89.353 1.68455 87.7924 1.2875C86.2318 0.892577 84.4844 0.692993 82.5523 0.692993C81.4036 6.44909 80.8303 12.0396 80.8303 17.4602C80.8303 18.7066 80.8685 19.834 80.945 20.8425C81.0214 21.8511 81.1361 22.7513 81.2889 23.5433C83.03 23.2269 84.735 22.6621 86.3996 21.8511C88.0642 21.04 89.5526 20.0251 90.8626 18.8085C92.1727 17.5919 93.2322 16.1969 94.0347 14.6236C94.8395 13.0524 95.2408 11.3559 95.2408 9.53416C95.2408 8.12858 94.9435 6.87799 94.3511 5.78027" fill="white"/>
<path d="M33.2506 6.05622C32.896 5.00309 32.4077 4.08373 31.7834 3.29601C31.1592 2.50829 30.414 1.88618 29.5477 1.4318C28.6814 0.977431 27.745 0.750244 26.7365 0.750244C25.728 0.750244 24.7789 0.971061 23.936 1.41057C23.093 1.85008 22.3711 2.45945 21.7681 3.23868C21.1673 4.02003 20.7044 4.9394 20.3795 5.99889C20.0568 7.05839 19.8933 8.20281 19.8933 9.43005C19.8933 10.808 20.0143 12.1648 20.2543 13.4982C20.4942 14.8316 20.8105 16.0652 21.2033 17.2011L24.7024 16.3837C24.5963 16.08 24.4986 15.7785 24.4094 15.4749C24.3203 15.1734 24.2587 14.8464 24.229 14.4982C24.6642 14.1797 25.1292 13.8846 25.6176 13.6107C26.1059 13.3389 26.6027 13.0969 27.1081 12.8846C27.6113 12.6722 28.1081 12.4918 28.5986 12.3389C29.0891 12.1881 29.5498 12.0735 29.9872 11.9992C29.7749 13.0438 29.5838 13.9419 29.4118 14.6914C29.2377 15.4409 29.0848 16.0652 28.9489 16.5663L32.448 17.4071C32.7792 16.1352 33.0362 15.063 33.2166 14.1925C33.3971 13.3219 33.5288 12.5831 33.6116 11.9758C33.6944 11.3707 33.7432 10.8696 33.7581 10.4768C33.7729 10.084 33.7814 9.73579 33.7814 9.43217C33.7814 8.23466 33.6052 7.10935 33.2506 6.05834V6.05622ZM30.0827 10.2921L27.2227 9.64237L25.0507 11.5278L24.8129 8.72725L22.2544 7.31742L24.9763 6.2282L25.5793 3.47861L27.4881 5.60822L30.414 5.30672L28.8831 7.71872L30.0849 10.2921H30.0827Z" fill="white"/>
<path d="M66.7067 6.05622C66.3521 5.00309 65.8637 4.08373 65.2395 3.29601C64.6153 2.50829 63.87 1.88618 63.0037 1.4318C62.1375 0.977431 61.2011 0.750244 60.1926 0.750244C59.184 0.750244 58.2349 0.971061 57.392 1.41057C56.5491 1.85008 55.8272 2.45945 55.2242 3.23868C54.6233 4.02003 54.1604 4.9394 53.8356 5.99889C53.5107 7.05839 53.3494 8.20281 53.3494 9.43005C53.3494 10.808 53.4704 12.1648 53.7103 13.4982C53.9502 14.8316 54.2666 16.0652 54.6594 17.2011L58.1585 16.3837C58.0523 16.08 57.9547 15.7785 57.8655 15.4749C57.7763 15.1734 57.7147 14.8464 57.685 14.4982C58.1203 14.1797 58.5853 13.8846 59.0736 13.6107C59.562 13.3389 60.0588 13.0969 60.5641 12.8846C61.0673 12.6722 61.5642 12.4918 62.0546 12.3389C62.543 12.1881 63.0059 12.0735 63.4432 11.9992C63.2309 13.0438 63.0398 13.9419 62.8678 14.6914C62.6937 15.4409 62.5409 16.0652 62.405 16.5663L65.9041 17.4071C66.2353 16.1352 66.4901 15.063 66.6706 14.1925C66.851 13.3219 66.9827 12.5831 67.0655 11.9758C67.1483 11.3707 67.1971 10.8696 67.212 10.4768C67.2269 10.084 67.2353 9.73579 67.2353 9.43217C67.2353 8.23466 67.0591 7.10935 66.7045 6.05834L66.7067 6.05622ZM62.2415 7.71659L63.4432 10.29L60.5832 9.64025L58.4112 11.5257L58.1734 8.72513L55.6149 7.3153L58.3369 6.22608L58.9399 3.47648L60.8486 5.60609L63.7745 5.30459L62.2436 7.71659H62.2415Z" fill="white"/>
</g>
</svg>
