<svg width="88" height="28" viewBox="0 0 88 28" fill="none" xmlns="http://www.w3.org/2000/svg">
<g opacity="0.5">
<path d="M9.27089 11.4091C8.74413 10.9472 8.22131 10.5305 7.70045 10.159C7.17959 9.78751 6.71376 9.40817 6.301 9.02096C5.88628 8.63376 5.55607 8.22297 5.30842 7.78662C5.06076 7.35225 4.94283 6.84121 4.95856 6.25353C4.98214 5.32777 5.38704 4.87767 6.17521 4.90125C6.57814 4.91305 6.91031 5.07618 7.17369 5.38673L10.0551 2.10826C9.68168 1.68764 9.1451 1.37316 8.44931 1.16285C7.75155 0.954507 7.05772 0.838542 6.36586 0.818887C5.44207 0.79137 4.61656 0.903404 3.88932 1.15695C3.16208 1.41051 2.54098 1.77019 2.02995 2.23602C1.51891 2.70185 1.12385 3.26398 0.846709 3.92243C0.569572 4.58087 0.422159 5.31205 0.400538 6.11397C0.378917 6.93359 0.471296 7.67459 0.67571 8.3409C0.880123 9.00721 1.17298 9.62044 1.55233 10.1845C1.93167 10.7486 2.37588 11.2695 2.88298 11.7491C3.39008 12.2287 3.92667 12.6906 4.49273 13.1348C4.98411 13.524 5.39294 13.862 5.72314 14.147C6.05138 14.434 6.31476 14.6856 6.51131 14.9057C6.70786 15.1258 6.84741 15.3263 6.92997 15.5052C7.01252 15.686 7.04986 15.857 7.04593 16.0162C7.03217 16.5685 6.85331 16.9813 6.50935 17.2565C6.16538 17.5316 5.73494 17.6594 5.21604 17.6437C4.81311 17.6319 4.4318 17.4766 4.07408 17.1818L1.13564 20.4052C2.36212 21.3329 3.68687 21.8204 5.1099 21.8636C5.99438 21.8911 6.82973 21.7555 7.61593 21.4587C8.40213 21.1619 9.09203 20.7433 9.68168 20.1988C10.2733 19.6563 10.7411 19.0215 11.087 18.2923C11.433 17.5631 11.6157 16.7808 11.6374 15.9435C11.6551 15.232 11.4998 14.5047 11.1735 13.7657C10.8453 13.0247 10.2124 12.2405 9.27089 11.4091Z" fill="white"/>
<path d="M16.2091 4.9167H18.2159V1.09771H17.3491C16.9796 1.09771 16.5688 1.09378 16.1167 1.08592C15.6646 1.07805 15.1929 1.07412 14.7055 1.07412C14.218 1.07412 13.7502 1.07019 13.306 1.06233C12.8598 1.05447 12.453 1.05054 12.0835 1.05054H11.2363V4.86953H12.8874C12.9719 7.23797 13.0132 11.6446 13.0132 18.0896H16.3152V13.6907C16.3152 11.9355 16.3054 10.3356 16.2838 8.89293C16.2621 7.45221 16.2386 6.12549 16.211 4.9167" fill="white"/>
<path d="M37.6686 7.20659C37.1811 7.5309 36.4971 7.79231 35.6205 7.9869C35.6205 7.20659 35.6166 6.47149 35.6107 5.78159C35.6028 5.0917 35.5714 4.47453 35.5163 3.92811C36.4912 4.00674 37.2165 4.1797 37.6902 4.44504C38.1639 4.71235 38.3997 5.11725 38.3997 5.66366C38.3997 6.36731 38.156 6.88031 37.6686 7.20462M40.094 11.5582C39.7186 11.2457 39.3766 10.9509 39.07 10.6698C38.7633 10.3907 38.5196 10.1411 38.3388 9.91899C39.4257 9.54161 40.2611 8.98144 40.8468 8.24045C41.4325 7.49945 41.7234 6.62086 41.7234 5.60666C41.7234 4.81456 41.5465 4.11091 41.1908 3.49963C40.835 2.88836 40.3259 2.37536 39.6655 1.95867C39.0031 1.54198 38.2051 1.2275 37.2715 1.01326C36.3379 0.799021 35.2923 0.690918 34.1365 0.690918C33.7316 0.690918 33.3661 0.700746 33.0398 0.720401C32.7115 0.740056 32.4226 0.761676 32.173 0.789194C32.2437 1.93312 32.289 3.08098 32.3086 4.23277C32.3283 5.38456 32.3401 6.53242 32.3401 7.67634C32.3401 10.2256 32.2772 12.6963 32.1514 15.0883H35.3709C35.4121 14.5949 35.4436 14.0603 35.4652 13.4884C35.4868 12.9164 35.5045 12.2796 35.5163 11.5759C35.8229 11.7843 36.2101 12.0693 36.676 12.4329C37.1418 12.7965 37.6155 13.1837 38.097 13.5945C38.5786 14.0033 39.0346 14.4102 39.467 14.8131C39.8994 15.216 40.2394 15.56 40.491 15.847L42.5391 13.4274C42.1204 13.1287 41.7038 12.8201 41.2851 12.5017C40.8664 12.1833 40.4694 11.8668 40.094 11.5563" fill="white"/>
<path d="M46.0083 9.9191C46.0083 9.55548 46.0318 9.10931 46.081 8.58255C46.1301 8.0558 46.195 7.49956 46.2795 6.91383C46.364 6.32811 46.4544 5.73453 46.5507 5.12915C46.649 4.52574 46.7453 3.95574 46.8436 3.42308C46.9419 2.89043 47.0342 2.41281 47.1247 1.99023C47.2151 1.56764 47.2878 1.25316 47.3448 1.04482L44.0211 0.7323C43.9661 0.901334 43.8914 1.19026 43.801 1.60106C43.7106 2.00988 43.6162 2.49536 43.5199 3.05357C43.4216 3.61374 43.3234 4.21125 43.2271 4.84808C43.1288 5.48491 43.0384 6.11584 42.9558 6.74087C42.8713 7.36393 42.8064 7.95752 42.7573 8.51572C42.7082 9.0759 42.6846 9.54369 42.6846 9.92107C42.6846 11.8453 43.2349 13.3253 44.3356 14.3592C45.4363 15.393 47.0107 15.91 49.0587 15.91V12.8281C47.958 12.8281 47.1738 12.606 46.708 12.1637C46.2402 11.7215 46.0083 10.9746 46.0083 9.92107" fill="white"/>
<path d="M69.3152 0.83439C68.7295 0.83439 68.1969 0.975906 67.7153 1.25697C67.2357 1.54001 66.8407 1.97832 66.534 2.57387C66.534 2.33211 66.5517 2.04514 66.5871 1.71494C66.6225 1.38473 66.6815 1.08204 66.764 0.808838L63.629 1.4378C63.4757 2.40483 63.3578 3.46424 63.2733 4.61603C63.1907 5.76782 63.1475 7.05327 63.1475 8.4704C63.1475 10.4202 63.2104 12.2324 63.3362 13.909C63.4619 15.5836 63.6565 17.1462 63.9219 18.5967L67.1414 17.2916C66.9036 16.2283 66.7188 15.1649 66.5871 14.1016C66.4535 13.0382 66.3886 12.0948 66.3886 11.2732C66.3886 9.24285 66.6323 7.63702 67.1198 6.45182C67.6072 5.26662 68.303 4.675 69.2091 4.675C70.0032 4.675 70.4002 5.52017 70.4002 7.21247C70.4002 7.77658 70.3412 8.50578 70.2233 9.40009C70.1054 10.2944 69.9481 11.2339 69.7535 12.2147C69.559 13.1975 69.3349 14.1723 69.0853 15.1394C68.8337 16.1064 68.5762 16.9516 68.3109 17.6769L71.383 19.1274C72.8885 14.8583 73.6394 10.9587 73.6394 7.43064C73.6394 5.20765 73.2659 3.55073 72.521 2.4638C71.7761 1.37687 70.7049 0.832424 69.3133 0.832424" fill="white"/>
<path d="M82.7319 10.9096C82.4744 11.6329 82.1422 12.3385 81.7354 13.0245C81.3285 13.7104 80.8765 14.3433 80.3812 14.9212C79.8858 15.4971 79.3886 15.9334 78.8933 16.2263C78.8933 11.6113 79.1586 7.98489 79.6913 5.34718C81.9771 5.84249 83.1191 7.05128 83.1191 8.97355C83.1191 9.54158 82.9894 10.1863 82.7339 10.9096M87.1563 5.52604C86.6079 4.50987 85.8178 3.65291 84.7918 2.95712C83.7638 2.26133 82.5295 1.73064 81.0848 1.36309C79.6402 0.997502 78.0225 0.812744 76.2339 0.812744C75.1706 6.14124 74.6399 11.3164 74.6399 16.3344C74.6399 17.4881 74.6753 18.5318 74.746 19.4654C74.8168 20.3991 74.9229 21.2324 75.0644 21.9656C76.6762 21.6727 78.2545 21.1499 79.7954 20.3991C81.3364 19.6482 82.7142 18.7087 83.9269 17.5825C85.1397 16.4562 86.1204 15.1649 86.8634 13.7085C87.6083 12.254 87.9798 10.6835 87.9798 8.99713C87.9798 7.69596 87.7046 6.53828 87.1563 5.52211" fill="white"/>
<path d="M30.5948 5.77766C30.2665 4.80276 29.8145 3.9517 29.2366 3.22249C28.6587 2.49329 27.9688 1.91739 27.1669 1.49677C26.365 1.07615 25.4982 0.865845 24.5646 0.865845C23.631 0.865845 22.7524 1.07026 21.9721 1.47712C21.1918 1.88398 20.5235 2.44808 19.9653 3.16942C19.409 3.89273 18.9806 4.7438 18.6798 5.72459C18.3811 6.70538 18.2297 7.76479 18.2297 8.90085C18.2297 10.1765 18.3418 11.4324 18.5639 12.6668C18.786 13.9011 19.0788 15.0431 19.4425 16.0946L22.6816 15.3379C22.5833 15.0568 22.4929 14.7777 22.4104 14.4967C22.3278 14.2176 22.2708 13.9149 22.2433 13.5925C22.6462 13.2977 23.0767 13.0245 23.5288 12.7709C23.9808 12.5194 24.4408 12.2953 24.9085 12.0987C25.3744 11.9022 25.8343 11.7351 26.2883 11.5936C26.7424 11.4541 27.1689 11.3479 27.5738 11.2791C27.3772 12.2462 27.2003 13.0776 27.0411 13.7714C26.88 14.4652 26.7384 15.0431 26.6126 15.5069L29.8518 16.2853C30.1584 15.1079 30.3962 14.1154 30.5633 13.3095C30.7304 12.5036 30.8522 11.8196 30.9289 11.2575C31.0056 10.6973 31.0508 10.2335 31.0645 9.86985C31.0783 9.50623 31.0861 9.18389 31.0861 8.90282C31.0861 7.79427 30.923 6.75255 30.5948 5.77962V5.77766ZM27.6622 9.69885L25.0147 9.0974L23.004 10.8428L22.7838 8.25027L20.4154 6.94517L22.9352 5.93686L23.4934 3.39153L25.2604 5.36293L27.9688 5.08383L26.5517 7.31665L27.6642 9.69885H27.6622Z" fill="white"/>
<path d="M61.5652 5.77766C61.237 4.80276 60.7849 3.9517 60.2071 3.22249C59.6292 2.49329 58.9393 1.91739 58.1374 1.49677C57.3354 1.07615 56.4687 0.865845 55.535 0.865845C54.6014 0.865845 53.7228 1.07026 52.9425 1.47712C52.1622 1.88398 51.4939 2.44808 50.9357 3.16942C50.3795 3.89273 49.951 4.7438 49.6503 5.72459C49.3496 6.70538 49.2002 7.76479 49.2002 8.90085C49.2002 10.1765 49.3122 11.4324 49.5343 12.6668C49.7564 13.9011 50.0493 15.0431 50.4129 16.0946L53.6521 15.3379C53.5538 15.0568 53.4634 14.7777 53.3808 14.4967C53.2983 14.2176 53.2413 13.9149 53.2138 13.5925C53.6167 13.2977 54.0471 13.0245 54.4992 12.7709C54.9513 12.5194 55.4112 12.2953 55.879 12.0987C56.3448 11.9022 56.8048 11.7351 57.2588 11.5936C57.7109 11.4541 58.1393 11.3479 58.5442 11.2791C58.3477 12.2462 58.1708 13.0776 58.0116 13.7714C57.8504 14.4652 57.7089 15.0431 57.5831 15.5069L60.8223 16.2853C61.1289 15.1079 61.3647 14.1154 61.5318 13.3095C61.6989 12.5036 61.8207 11.8196 61.8974 11.2575C61.9741 10.6973 62.0193 10.2335 62.033 9.86985C62.0468 9.50623 62.0546 9.18389 62.0546 8.90282C62.0546 7.79427 61.8915 6.75255 61.5633 5.77962L61.5652 5.77766ZM57.4318 7.31469L58.5442 9.69689L55.8967 9.09544L53.886 10.8408L53.6658 8.2483L51.2974 6.9432L53.8172 5.9349L54.3754 3.38956L56.1424 5.36097L58.8509 5.08187L57.4337 7.31469H57.4318Z" fill="white"/>
<path d="M20.9519 27.2962L21.1897 25.541C21.9052 25.7651 22.4791 25.8791 22.9115 25.8791C23.0806 25.8791 23.2083 25.8437 23.2968 25.7729C23.3852 25.7022 23.4284 25.6235 23.4284 25.5371C23.4284 25.5036 23.4226 25.4742 23.4088 25.4486C23.395 25.4211 23.3734 25.3975 23.34 25.3739C23.3066 25.3503 23.2751 25.3307 23.2457 25.313C23.2162 25.2953 23.171 25.2776 23.11 25.256C23.0491 25.2363 22.998 25.2206 22.9587 25.2068C22.9174 25.1951 22.8585 25.1774 22.7798 25.1538C22.6363 25.1125 22.5243 25.0811 22.4437 25.0555C22.3631 25.0299 22.2511 24.9887 22.1037 24.9277C21.9563 24.8688 21.8403 24.8078 21.7519 24.7469C21.6654 24.686 21.5651 24.6034 21.4531 24.4993C21.3411 24.3951 21.2526 24.2811 21.1917 24.1612C21.1288 24.0393 21.0757 23.8919 21.0325 23.719C20.9873 23.546 20.9657 23.3553 20.9657 23.147C20.9657 22.9249 20.9853 22.7283 21.0266 22.5573C21.0679 22.3863 21.1209 22.2409 21.1858 22.123C21.2507 22.005 21.3411 21.9048 21.457 21.8222C21.571 21.7397 21.687 21.6748 21.801 21.6277C21.915 21.5805 22.0585 21.5451 22.2334 21.5195C22.4064 21.494 22.5695 21.4783 22.7189 21.4704C22.8683 21.4625 23.0511 21.4586 23.2692 21.4586C23.8019 21.4586 24.4269 21.5294 25.1424 21.6729L24.9242 23.2865C24.6765 23.1745 24.3935 23.0802 24.0771 23.0055C23.7606 22.9288 23.4579 22.8915 23.1749 22.8915C23.0236 22.8915 22.9056 22.9151 22.8172 22.9622C22.7307 23.0094 22.6855 23.0782 22.6855 23.1647C22.6855 23.1922 22.6914 23.2178 22.7051 23.2433C22.7189 23.2669 22.7445 23.2905 22.7798 23.3141C22.8152 23.3357 22.8486 23.3573 22.882 23.373C22.9154 23.3907 22.9626 23.4104 23.0275 23.432C23.0923 23.4536 23.1454 23.4733 23.1887 23.4851C23.2319 23.4969 23.2968 23.5185 23.3813 23.544C23.7783 23.6639 24.079 23.772 24.2815 23.8703C24.8122 24.1238 25.1502 24.4717 25.2957 24.914C25.3546 25.0928 25.3822 25.2855 25.3822 25.4958C25.3822 25.7061 25.3605 25.9105 25.3173 26.0874C25.2741 26.2663 25.2151 26.4196 25.1404 26.5493C25.0657 26.679 24.9714 26.795 24.8574 26.8933C24.7434 26.9935 24.6215 27.0741 24.4918 27.137C24.3601 27.1999 24.2127 27.251 24.0476 27.2903C23.8825 27.3296 23.7154 27.3571 23.5483 27.3748C23.3813 27.3905 23.1985 27.3984 23.0039 27.3984C22.3258 27.3984 21.6438 27.363 20.9558 27.2923" fill="white"/>
<path d="M25.8972 24.4424C25.8972 24.1161 25.9012 23.6463 25.9071 23.0272C25.913 22.4081 25.9169 21.9422 25.9169 21.6258C26.6343 21.5157 27.2652 21.4607 27.8097 21.4607C28.0711 21.4607 28.2932 21.4666 28.476 21.4784C28.6588 21.4902 28.8494 21.5138 29.046 21.5511C29.2425 21.5885 29.4057 21.6396 29.5374 21.7064C29.6691 21.7732 29.7948 21.8636 29.9187 21.9776C30.0425 22.0916 30.1388 22.2272 30.2096 22.3884C30.2803 22.5496 30.3354 22.7442 30.3786 22.9741C30.4199 23.2041 30.4415 23.4655 30.4415 23.7603C30.4415 23.9648 30.4297 24.1515 30.4042 24.3244C30.3806 24.4954 30.3452 24.6507 30.3 24.7883C30.2548 24.9259 30.1978 25.0517 30.127 25.1637C30.0563 25.2757 29.9776 25.374 29.8912 25.4585C29.8047 25.5431 29.7044 25.6177 29.5924 25.6806C29.4804 25.7435 29.3624 25.7966 29.2366 25.8399C29.1128 25.8831 28.9733 25.9165 28.8219 25.944C28.6706 25.9696 28.5153 25.9892 28.3561 26.001C28.1989 26.0128 28.0259 26.0167 27.8372 26.0167C27.849 26.7617 27.8569 27.2078 27.8569 27.3572C27.5542 27.371 27.2692 27.3769 27.0019 27.3769C26.7857 27.3769 26.4554 27.371 26.0112 27.3572C25.9857 27.3572 25.9621 27.3474 25.9424 27.3277C25.9228 27.3081 25.913 27.2865 25.913 27.259C25.913 26.9602 25.909 26.4983 25.9031 25.8733C25.8972 25.2482 25.8933 24.7726 25.8933 24.4443M27.8195 24.4227H27.9728C28.0318 24.4227 28.0849 24.4188 28.1261 24.4129C28.1694 24.407 28.2146 24.3913 28.2598 24.3657C28.307 24.3402 28.3423 24.3048 28.3718 24.2615C28.3993 24.2163 28.4229 24.1554 28.4426 24.0748C28.4603 23.9962 28.4701 23.8999 28.4701 23.7879C28.4701 23.6758 28.4701 23.5933 28.4662 23.5264C28.4642 23.4616 28.4563 23.4007 28.4445 23.3456C28.4327 23.2906 28.417 23.2513 28.4013 23.2238C28.3836 23.1982 28.3581 23.1746 28.3227 23.155C28.2873 23.1353 28.248 23.1235 28.2067 23.1196C28.1654 23.1157 28.1104 23.1137 28.0396 23.1137H27.8195V24.4208V24.4227Z" fill="white"/>
<path d="M30.7422 24.4404C30.7422 23.9687 30.7933 23.55 30.8955 23.1825C30.9977 22.8149 31.1451 22.5063 31.3358 22.2606C31.5284 22.015 31.7603 21.8243 32.0316 21.6906C32.3048 21.557 32.6114 21.4803 32.9554 21.4626C33.2718 21.4626 33.5529 21.4843 33.8005 21.5275C34.0482 21.5707 34.2742 21.6395 34.4826 21.7359C34.6889 21.8322 34.8639 21.958 35.0113 22.1113C35.1567 22.2646 35.2806 22.4513 35.3808 22.6714C35.481 22.8916 35.5557 23.1491 35.6049 23.4419C35.652 23.7348 35.6756 24.0689 35.6756 24.4424C35.6756 24.9141 35.6245 25.3327 35.5203 25.7003C35.4162 26.0678 35.2668 26.3745 35.0722 26.6201C34.8776 26.8658 34.6437 27.0545 34.3705 27.1882C34.0973 27.3218 33.7887 27.3965 33.4428 27.4142C33.1283 27.4142 32.8492 27.3926 32.6016 27.3494C32.3539 27.3061 32.1298 27.2373 31.9254 27.141C31.721 27.0447 31.5461 26.9209 31.4006 26.7695C31.2552 26.6162 31.1333 26.4295 31.0331 26.2094C30.9348 25.9892 30.8601 25.7337 30.8129 25.4408C30.7658 25.148 30.7422 24.8158 30.7422 24.4404ZM32.7706 24.4404C32.7706 24.6664 32.7785 24.8591 32.7942 25.0183C32.8099 25.1775 32.8296 25.3013 32.8531 25.3937C32.8767 25.486 32.9082 25.5568 32.9495 25.6059C32.9907 25.6551 33.03 25.6885 33.0713 25.7023C33.1126 25.716 33.1617 25.7239 33.2187 25.7239C33.2757 25.7239 33.3249 25.716 33.3642 25.7023C33.4035 25.6885 33.4428 25.6551 33.4801 25.6059C33.5195 25.5548 33.5489 25.4841 33.5706 25.3937C33.5922 25.3013 33.6099 25.1775 33.6236 25.0183C33.6374 24.8591 33.6452 24.6664 33.6452 24.4404C33.6452 24.2517 33.6413 24.0886 33.6315 23.9471C33.6217 23.8055 33.6059 23.6896 33.5863 23.5972C33.5647 23.5048 33.543 23.4301 33.5175 23.3692C33.4939 23.3102 33.4625 23.265 33.4231 23.2375C33.3858 23.208 33.3485 23.1884 33.3131 23.1785C33.2777 23.1687 33.2364 23.1628 33.1873 23.1628C33.1381 23.1628 33.0969 23.1667 33.0654 23.1766C33.032 23.1864 32.9986 23.2061 32.9652 23.2355C32.9318 23.265 32.9042 23.3102 32.8807 23.3692C32.859 23.4282 32.8394 23.5048 32.8217 23.5972C32.804 23.6915 32.7902 23.8075 32.7824 23.9471C32.7745 24.0866 32.7706 24.2517 32.7706 24.4404Z" fill="white"/>
<path d="M36.2083 24.3166C36.2083 23.9923 36.2122 23.5441 36.2181 22.9722C36.224 22.4002 36.2279 21.9521 36.2279 21.6278C36.5522 21.5786 36.8962 21.5373 37.2598 21.5079C37.6254 21.4784 37.9438 21.4626 38.217 21.4626C38.4529 21.4626 38.6514 21.4666 38.8126 21.4744C38.9718 21.4823 39.1447 21.498 39.3314 21.5236C39.5162 21.5491 39.6695 21.5845 39.7894 21.6317C39.9093 21.6789 40.0292 21.7437 40.1491 21.8263C40.269 21.9088 40.3614 22.0091 40.4302 22.127C40.497 22.2449 40.552 22.3904 40.5933 22.5614C40.6365 22.7324 40.6562 22.9289 40.6562 23.151C40.6562 23.5028 40.5658 23.8114 40.385 24.0787C40.2041 24.3461 39.9506 24.5564 39.6282 24.7077C39.8484 24.7844 40.0272 24.9396 40.1648 25.1735C40.4872 25.8064 40.7447 26.5337 40.9373 27.3592C40.6385 27.3946 40.3004 27.4122 39.9211 27.4122C39.6459 27.4122 39.3865 27.4044 39.1408 27.3887C39.1093 27.3887 39.0799 27.3769 39.0504 27.3592C39.0209 27.3415 39.0012 27.3179 38.9914 27.2904C38.675 26.3332 38.4312 25.5588 38.2563 24.9691H38.1286C38.1325 25.1499 38.1403 25.5214 38.1521 26.0836C38.1639 26.6457 38.1718 27.0703 38.1718 27.3572C37.9065 27.369 37.6215 27.3749 37.3188 27.3749C37.0456 27.3749 36.7154 27.369 36.3262 27.3572C36.2987 27.3572 36.2751 27.3474 36.2574 27.3297C36.2377 27.312 36.2299 27.2884 36.2299 27.2609C36.2299 26.9621 36.2259 26.4786 36.22 25.8123C36.2141 25.146 36.2102 24.6468 36.2102 24.3185M38.1207 23.7721H38.2858C38.4391 23.7721 38.5649 23.7348 38.6592 23.6562C38.7536 23.5795 38.8008 23.4773 38.8008 23.3515C38.8008 23.1923 38.7693 23.0744 38.7045 22.9977C38.6396 22.9211 38.5256 22.8837 38.3605 22.8837C38.276 22.8837 38.1993 22.8857 38.1266 22.8916C38.1227 23.2709 38.1227 23.5638 38.1227 23.7721" fill="white"/>
<path d="M40.8784 22.2664C40.8784 22.005 40.8823 21.7593 40.8882 21.5293C41.1968 21.5156 41.9477 21.5077 43.1368 21.5077C44.0783 21.5077 44.7465 21.5156 45.1416 21.5293C45.1672 21.5293 45.1908 21.5391 45.2104 21.5588C45.2301 21.5784 45.2399 21.6001 45.2399 21.6276C45.2458 21.9932 45.2497 22.2683 45.2497 22.4531C45.2497 22.7165 45.2458 22.9602 45.2399 23.1823C45.1337 23.1862 44.7426 23.1921 44.0645 23.198C44.0704 23.5479 44.0743 23.9626 44.0743 24.4442C44.0743 25.3503 44.0606 26.3212 44.035 27.3571C43.7284 27.3708 43.4434 27.3787 43.1859 27.3787C42.9284 27.3787 42.5884 27.3708 42.1914 27.3571C42.1658 27.3571 42.1422 27.3472 42.1226 27.3276C42.1029 27.3079 42.0931 27.2863 42.0931 27.2607C42.0676 26.0441 42.0538 25.1046 42.0538 24.4442C42.0538 24.1454 42.0577 23.7268 42.0636 23.1902C41.6921 23.1823 41.3325 23.1725 40.9865 23.1627C40.961 23.1627 40.9374 23.1528 40.9177 23.1332C40.8981 23.1135 40.8882 23.0919 40.8882 23.0663C40.8823 22.6949 40.8784 22.4295 40.8784 22.2703" fill="white"/>
<path d="M45.5286 27.2963L45.7664 25.5411C46.4818 25.7652 47.0558 25.8792 47.4882 25.8792C47.6572 25.8792 47.785 25.8438 47.8734 25.773C47.9619 25.7023 48.0051 25.6237 48.0051 25.5372C48.0051 25.5038 47.9992 25.4743 47.9855 25.4487C47.9737 25.4212 47.9481 25.3976 47.9167 25.374C47.8832 25.3505 47.8518 25.3308 47.8223 25.3131C47.7928 25.2954 47.7476 25.2777 47.6867 25.2561C47.6258 25.2365 47.5747 25.2207 47.5353 25.207C47.4941 25.1952 47.4351 25.1775 47.3565 25.1539C47.213 25.1126 47.101 25.0812 47.0204 25.0556C46.9398 25.0301 46.8278 24.9888 46.6804 24.9279C46.5329 24.8689 46.417 24.808 46.3285 24.747C46.2401 24.6861 46.1418 24.6036 46.0298 24.4994C45.9177 24.3952 45.8293 24.2812 45.7684 24.1613C45.7055 24.0395 45.6524 23.892 45.6092 23.7191C45.5639 23.5461 45.5423 23.3555 45.5423 23.1471C45.5423 22.925 45.562 22.7285 45.6033 22.5575C45.6445 22.3865 45.6976 22.241 45.7625 22.1231C45.8273 22.0052 45.9177 21.9049 46.0337 21.8224C46.1497 21.7398 46.2637 21.6749 46.3777 21.6278C46.4917 21.5806 46.6351 21.5452 46.8101 21.5197C46.985 21.4941 47.1462 21.4784 47.2956 21.4705C47.4449 21.4627 47.6277 21.4587 47.8459 21.4587C48.3786 21.4587 49.0036 21.5295 49.721 21.673L49.5028 23.2867C49.2552 23.1746 48.9721 23.0803 48.6557 23.0056C48.3392 22.9289 48.0366 22.8916 47.7516 22.8916C47.6002 22.8916 47.4823 22.9152 47.3958 22.9624C47.3093 23.0095 47.2641 23.0783 47.2641 23.1648C47.2641 23.1923 47.272 23.2179 47.2838 23.2434C47.2975 23.267 47.3211 23.2906 47.3585 23.3142C47.3938 23.3358 47.4272 23.3574 47.4607 23.3731C47.4921 23.3908 47.5412 23.4105 47.6061 23.4321C47.671 23.4537 47.724 23.4734 47.7673 23.4852C47.8105 23.497 47.8734 23.5186 47.9599 23.5441C48.3569 23.664 48.6577 23.7721 48.8601 23.8704C49.3908 24.124 49.7289 24.4719 49.8743 24.9141C49.9333 25.093 49.9608 25.2856 49.9608 25.4959C49.9608 25.7062 49.9392 25.9106 49.8959 26.0875C49.8527 26.2664 49.7937 26.4197 49.719 26.5494C49.6443 26.6791 49.55 26.7951 49.436 26.8934C49.322 26.9936 49.2001 27.0742 49.0684 27.1371C48.9368 27.2 48.7893 27.2511 48.6242 27.2904C48.4591 27.3297 48.2921 27.3572 48.125 27.3749C47.9579 27.3907 47.7751 27.3985 47.5806 27.3985C46.9025 27.3985 46.2204 27.3631 45.5325 27.2924" fill="white"/>
<path d="M50.4424 24.4424C50.4424 24.1161 50.4463 23.6463 50.4522 23.0272C50.4581 22.4081 50.4621 21.9422 50.4621 21.6258C51.1795 21.5157 51.8104 21.4607 52.3548 21.4607C52.6163 21.4607 52.8384 21.4666 53.0211 21.4784C53.2039 21.4902 53.3946 21.5138 53.5911 21.5511C53.7877 21.5885 53.9508 21.6396 54.0825 21.7064C54.2142 21.7732 54.34 21.8636 54.4638 21.9776C54.5877 22.0916 54.684 22.2272 54.7547 22.3884C54.8255 22.5496 54.8805 22.7442 54.9238 22.9741C54.965 23.2041 54.9867 23.4655 54.9867 23.7603C54.9867 23.9648 54.9749 24.1515 54.9493 24.3244C54.9257 24.4954 54.8903 24.6507 54.8451 24.7883C54.7999 24.9259 54.741 25.0517 54.6722 25.1637C54.6014 25.2757 54.5228 25.374 54.4363 25.4585C54.3498 25.5431 54.2496 25.6177 54.1376 25.6806C54.0255 25.7435 53.9056 25.7966 53.7818 25.8399C53.658 25.8831 53.5184 25.9165 53.3671 25.944C53.2157 25.9696 53.0605 25.9892 52.9032 26.001C52.746 26.0128 52.573 26.0167 52.3843 26.0167C52.3981 26.7617 52.404 27.2078 52.404 27.3572C52.1013 27.371 51.8163 27.3769 51.549 27.3769C51.3328 27.3769 51.0026 27.371 50.5584 27.3572C50.5328 27.3572 50.5092 27.3474 50.4896 27.3277C50.4699 27.3081 50.4601 27.2865 50.4601 27.259C50.4601 26.9602 50.4562 26.4983 50.4503 25.8733C50.4444 25.2482 50.4404 24.7726 50.4404 24.4443M52.3647 24.4227H52.518C52.5769 24.4227 52.63 24.4188 52.6713 24.4129C52.7145 24.407 52.7597 24.3913 52.8049 24.3657C52.8521 24.3402 52.8875 24.3048 52.917 24.2615C52.9445 24.2163 52.9681 24.1554 52.9877 24.0748C53.0054 23.9962 53.0153 23.8999 53.0153 23.7879C53.0153 23.6758 53.0153 23.5933 53.0113 23.5264C53.0094 23.4616 53.0015 23.4007 52.9897 23.3456C52.9779 23.2906 52.9641 23.2513 52.9465 23.2238C52.9307 23.1982 52.9032 23.1746 52.8678 23.155C52.8325 23.1353 52.7931 23.1235 52.7519 23.1196C52.7106 23.1157 52.6556 23.1137 52.5848 23.1137H52.3647V24.4208V24.4227Z" fill="white"/>
<path d="M55.4329 24.4422C55.4329 23.5361 55.4466 22.5651 55.4722 21.5293C55.7788 21.5136 56.0638 21.5077 56.3213 21.5077C56.5788 21.5077 56.9188 21.5156 57.3158 21.5293C57.3414 21.5293 57.365 21.5391 57.3846 21.5588C57.4043 21.5784 57.4141 21.6001 57.4141 21.6276C57.4397 22.8442 57.4534 23.7838 57.4534 24.4442C57.4534 24.8746 57.4515 25.2952 57.4456 25.7041H57.4868C58.0784 25.7041 58.5718 25.7119 58.9669 25.7257C58.9924 25.7257 59.016 25.7355 59.0357 25.7552C59.0553 25.7748 59.0651 25.7964 59.0651 25.824C59.071 26.219 59.075 26.4981 59.075 26.6632C59.075 26.9168 59.071 27.1546 59.0651 27.3767C58.7585 27.3905 58.2809 27.3983 57.6323 27.3983C57.4711 27.3983 57.1311 27.3924 56.6082 27.3826C56.0854 27.3728 55.7395 27.3629 55.5685 27.3571C55.5429 27.3571 55.5194 27.3472 55.4997 27.3276C55.48 27.3079 55.4702 27.2863 55.4702 27.2588C55.4447 26.0421 55.4309 25.1026 55.4309 24.4422" fill="white"/>
<path d="M59.5132 24.4422C59.5132 23.5361 59.5269 22.5651 59.5525 21.5293C59.8591 21.5136 60.5313 21.5077 61.5671 21.5077C62.3003 21.5077 62.8644 21.5156 63.2614 21.5293C63.287 21.5293 63.3106 21.5391 63.3302 21.5588C63.3499 21.5784 63.3597 21.6001 63.3597 21.6276C63.3656 22.0227 63.3695 22.3018 63.3695 22.4669C63.3695 22.7204 63.3656 22.9582 63.3597 23.1803C63.0865 23.1941 62.5715 23.2 61.8168 23.2C61.6811 23.2 61.5573 23.2 61.4472 23.198C61.4433 23.4221 61.4414 23.5911 61.4394 23.7071C62.0192 23.711 62.4064 23.715 62.603 23.7248C62.6285 23.7248 62.6521 23.7346 62.6718 23.7543C62.6914 23.7739 62.7012 23.7955 62.7012 23.8231C62.7052 24.0884 62.7091 24.3321 62.7091 24.5542C62.7091 24.7527 62.7071 24.969 62.7012 25.2028H61.4413C61.4413 25.3168 61.4453 25.4839 61.4492 25.708H61.5652C62.3573 25.708 62.9312 25.7139 63.283 25.7276C63.3086 25.7276 63.3322 25.7375 63.3518 25.7571C63.3715 25.7768 63.3813 25.7984 63.3813 25.8259C63.3872 26.221 63.3911 26.5001 63.3911 26.6652C63.3911 26.9187 63.3872 27.1566 63.3813 27.3787C63.0747 27.3924 62.5184 27.4003 61.7165 27.4003C61.5553 27.4003 61.2153 27.3944 60.6925 27.3846C60.1697 27.3747 59.8237 27.3649 59.6527 27.359C59.6272 27.359 59.6036 27.3492 59.5839 27.3295C59.5643 27.3099 59.5545 27.2883 59.5545 27.2607C59.5289 26.0441 59.5152 25.1046 59.5152 24.4442" fill="white"/>
<path d="M63.6606 27.3551C63.696 27.1861 63.7275 27.0446 63.753 26.9286C63.7786 26.8127 63.8199 26.6476 63.8749 26.4313C63.9299 26.2151 63.985 26.0304 64.0361 25.8712C64.0872 25.7139 64.154 25.5351 64.2346 25.3366C64.3152 25.138 64.3977 24.967 64.4803 24.8275C64.5628 24.6879 64.6611 24.5562 64.7712 24.4364C64.8812 24.3145 64.9972 24.226 65.1171 24.169V24.1553C64.9756 24.112 64.8242 23.9843 64.6631 23.77C64.5019 23.5578 64.3584 23.3121 64.2287 23.0349C64.1009 22.7578 63.9869 22.4866 63.8906 22.2193C63.7923 21.9539 63.7216 21.7239 63.6764 21.5333C63.9732 21.4979 64.2975 21.4802 64.6454 21.4802C64.9205 21.4802 65.18 21.4881 65.4257 21.5038C65.4571 21.5038 65.4866 21.5156 65.5161 21.5333C65.5456 21.551 65.5652 21.5726 65.5751 21.6001C65.6517 21.8321 65.7618 22.1505 65.9072 22.5593C66.0527 22.9681 66.1313 23.1863 66.1431 23.2177C66.1804 23.1136 66.2394 22.9544 66.32 22.7401C66.4006 22.5259 66.4733 22.3254 66.5401 22.1387C66.6069 21.9539 66.6679 21.7751 66.7249 21.6021C66.7347 21.5746 66.7544 21.5529 66.7838 21.5353C66.8133 21.5176 66.8428 21.5077 66.8743 21.5058C67.118 21.4901 67.3794 21.4822 67.6546 21.4822C68.0025 21.4822 68.3248 21.4999 68.6236 21.5353C68.5882 21.6866 68.5371 21.8635 68.4703 22.0659C68.4034 22.2664 68.3209 22.4846 68.2226 22.7185C68.1243 22.9524 68.0201 23.1686 67.914 23.3671C67.8059 23.5676 67.688 23.7406 67.5563 23.888C67.4266 24.0354 67.3008 24.1238 67.1809 24.1572V24.171C67.2693 24.226 67.3558 24.2948 67.4384 24.3754C67.5209 24.458 67.5956 24.5425 67.6624 24.6309C67.7292 24.7194 67.7941 24.8236 67.859 24.9454C67.9238 25.0673 67.9789 25.1793 68.028 25.2835C68.0752 25.3877 68.1243 25.5095 68.1754 25.653C68.2265 25.7965 68.2658 25.9183 68.2993 26.0206C68.3327 26.1228 68.368 26.2466 68.4074 26.396C68.4467 26.5434 68.4761 26.6593 68.4978 26.7439C68.5174 26.8284 68.5449 26.9384 68.5764 27.076C68.6098 27.2136 68.6314 27.306 68.6452 27.3571C68.3484 27.3925 68.0084 27.4102 67.629 27.4102C67.3538 27.4102 67.0944 27.4023 66.8507 27.3866C66.8192 27.3866 66.7897 27.3748 66.7603 27.3571C66.7308 27.3394 66.7111 27.3158 66.7013 27.2883C66.5617 26.8638 66.3789 26.2073 66.1549 25.3208C65.9249 26.2309 65.7441 26.8854 65.6104 27.2883C65.6006 27.3158 65.5809 27.3394 65.5515 27.3571C65.522 27.3748 65.4925 27.3846 65.4611 27.3866C65.2173 27.4023 64.9559 27.4102 64.6827 27.4102C64.3034 27.4102 63.9633 27.3925 63.6665 27.3571" fill="white"/>
</g>
</svg>
